<svg version="1.1" id="Layer_1" xmlns="http://www.w3.org/2000/svg" xmlns:xlink="http://www.w3.org/1999/xlink" x="0px" y="0px"
	 width="100%" viewBox="0 0 1167 490" enable-background="new 0 0 1167 490" xml:space="preserve">
<path fill="#FFFFFF" opacity="1.000000" stroke="none" 
	d="
M960.000000,491.000000 
	C640.373962,491.000000 320.747955,491.000000 1.060962,491.000000 
	C1.060962,327.728088 1.060962,164.456161 1.060962,1.092111 
	C389.889099,1.092111 778.778259,1.092111 1167.833740,1.092111 
	C1167.833740,164.333221 1167.833740,327.666595 1167.833740,491.000000 
	C1101.903076,491.000000 1035.911255,491.000000 969.465210,490.620483 
	C970.328430,487.120239 971.645935,483.999481 973.125916,480.562317 
	C975.513184,479.457062 977.737915,478.668243 979.973755,478.282104 
	C980.000610,479.181610 979.849609,479.769623 980.062317,480.158997 
	C980.820801,481.547699 981.607361,483.940460 982.555115,484.024902 
	C986.115784,484.342133 989.850525,484.378906 993.319092,483.611847 
	C997.239380,482.744843 997.388977,479.228394 996.771973,475.955353 
	C996.504456,474.536438 995.579529,473.241425 995.130737,471.563416 
	C996.519958,470.827423 997.747925,470.460388 998.940796,470.001801 
	C1005.952637,467.306152 1012.956299,464.589233 1019.973877,462.285889 
	C1019.898499,465.877045 1021.034851,468.689453 1024.413696,468.737030 
	C1026.706055,468.769318 1029.021729,467.144135 1031.327026,466.260193 
	C1030.275146,463.952850 1029.223511,461.645355 1028.170776,459.338287 
	C1028.101929,459.187347 1028.026245,459.039459 1028.122925,458.567505 
	C1030.648315,457.249451 1032.979614,456.189819 1035.365112,455.270294 
	C1043.554077,452.113586 1051.761841,449.006012 1059.973633,446.282318 
	C1060.000610,447.181854 1059.849487,447.769897 1060.062134,448.159241 
	C1060.820557,449.547852 1061.607422,451.940430 1062.555176,452.024872 
	C1066.115845,452.342072 1069.850586,452.378723 1073.319092,451.611816 
	C1077.239624,450.744934 1077.388428,447.228210 1076.772095,443.955505 
	C1076.504883,442.536621 1075.579834,441.241638 1075.125732,439.565491 
	C1084.531860,435.549316 1093.765991,431.857971 1103.047119,428.508087 
	C1105.152344,430.660553 1107.213257,432.468536 1109.268188,434.283356 
	C1112.264038,436.929321 1116.333618,435.862976 1116.698364,431.922302 
	C1116.938965,429.321075 1115.590454,426.572784 1115.125732,423.565491 
	C1124.531860,419.549316 1133.765991,415.857971 1143.047119,412.508118 
	C1145.693848,415.035797 1148.058350,417.689423 1151.010620,419.174957 
	C1152.168701,419.757660 1156.092041,417.949036 1156.263916,416.842407 
	C1156.953857,412.400421 1159.240234,409.872589 1163.004395,407.751282 
	C1165.600586,406.288147 1165.592773,403.475525 1163.332397,401.426544 
	C1161.239136,399.529022 1158.850586,399.297211 1156.806152,401.784210 
	C1155.925781,402.855164 1155.046387,403.926971 1154.008789,404.670929 
	C1151.905640,402.895966 1150.128662,401.096497 1147.981812,400.070648 
	C1142.731689,397.561676 1137.310547,395.410309 1131.970459,392.666779 
	C1131.988525,391.224609 1131.958618,390.228943 1132.006226,389.236969 
	C1132.183105,385.560699 1131.344971,382.626740 1127.036011,382.021179 
	C1120.909302,381.160187 1118.662231,382.278809 1116.577515,387.067688 
	C1108.113770,383.714539 1100.036011,380.414764 1091.970459,376.666779 
	C1091.988403,375.224609 1091.958496,374.228943 1092.006226,373.236969 
	C1092.183105,369.560699 1091.344971,366.626740 1087.036011,366.021179 
	C1080.909302,365.160187 1078.662231,366.278809 1076.577515,371.067688 
	C1068.113770,367.714539 1060.036011,364.414764 1051.970459,360.666779 
	C1051.988525,359.224609 1051.958618,358.228943 1052.006226,357.236969 
	C1052.182983,353.560699 1051.344971,350.626770 1047.036011,350.021179 
	C1040.909302,349.160217 1038.662231,350.278809 1036.577515,355.067688 
	C1028.113770,351.714539 1020.035950,348.414703 1011.970459,344.666748 
	C1011.988403,343.224579 1011.958374,342.228882 1012.006104,341.236908 
	C1012.182983,337.560455 1011.344543,334.626770 1007.035767,334.021149 
	C1000.909119,333.160034 998.661743,334.278961 996.577698,339.067810 
	C989.461243,336.398407 982.730774,333.782501 975.665161,331.090820 
	C974.207397,330.383179 973.084717,329.751343 971.973389,328.682129 
	C971.971985,326.746429 972.480957,324.937653 971.819092,323.825653 
	C970.922058,322.318359 969.045227,320.302338 967.739197,320.405670 
	C966.093628,320.535858 964.018799,322.271790 963.159912,323.869171 
	C961.297729,327.332367 960.091003,331.148041 958.616211,334.819550 
	C956.527100,329.149750 953.005859,324.705200 955.672424,318.466614 
	C958.631958,311.542725 957.156921,310.172882 949.375671,308.350128 
	C948.935059,306.044556 948.418335,303.635742 948.042236,301.205200 
	C947.919250,300.410583 948.094971,299.546539 948.248840,298.736053 
	C949.197388,293.737610 947.364319,290.228729 942.634521,288.032593 
	C941.484192,287.498444 940.352722,286.923676 938.994873,286.261444 
	C943.407593,277.971130 937.119385,271.316498 936.354309,263.914551 
	C936.284180,263.236084 935.403259,262.623444 934.860107,262.014801 
	C931.266785,257.988220 928.546570,253.712219 929.992798,247.899811 
	C931.781494,240.711349 931.476013,240.271729 923.963623,238.090744 
	C923.963623,235.183151 924.360474,232.059128 923.830017,229.101425 
	C923.449341,226.978668 922.284363,223.930008 920.677063,223.292770 
	C915.754822,221.341324 914.803162,218.376587 915.733582,213.539490 
	C916.085510,211.709579 914.788818,207.987183 913.619568,207.704010 
	C907.511169,206.224686 908.306702,201.116837 908.307129,197.368912 
	C908.308105,189.656479 908.027161,188.862259 901.684143,189.179810 
	C899.488708,186.407501 898.156555,182.998734 895.937134,182.261627 
	C890.328918,180.399078 890.838074,176.901794 892.222107,172.873871 
	C893.761597,168.393433 892.496460,165.804825 887.744873,164.977509 
	C886.858704,164.823212 885.908752,164.413559 885.223511,163.840408 
	C882.833008,161.840775 880.545715,159.717789 877.221680,156.751541 
	C877.124390,153.894547 875.411499,150.411682 870.734985,148.943390 
	C870.021057,148.719223 869.098511,147.568939 869.113464,146.864853 
	C869.232544,141.256180 865.791565,140.775345 863.201904,141.272903 
	C859.907532,138.598022 857.891296,135.965607 855.277100,135.060577 
	C850.828247,133.520370 850.553833,131.256241 851.691772,127.250580 
	C854.013733,119.077148 853.582764,118.627632 845.420654,116.211868 
	C844.107483,109.328918 843.627441,109.124863 836.168701,109.906715 
	C832.218201,110.320824 827.786377,111.000519 827.809814,104.606689 
	C827.812927,103.763306 826.164612,102.182922 825.298950,102.195274 
	C821.767151,102.245659 820.032715,100.947861 817.712097,97.892281 
	C813.419128,92.239693 808.013245,87.429123 803.895264,81.465317 
	C802.870300,79.980858 799.407654,80.050980 797.022522,79.690231 
	C795.881409,79.517639 794.440918,80.504639 793.476013,80.118019 
	C786.776672,77.433678 783.036926,71.571106 780.255981,65.574799 
	C778.642639,62.095997 776.962036,60.937176 773.694092,61.267159 
	C770.634033,61.576153 767.601746,62.160168 764.164490,62.682884 
	C764.382935,58.011700 763.976807,54.091995 758.055298,54.696342 
	C757.748474,54.727657 756.815979,52.463875 756.848511,51.287231 
	C756.959656,47.263386 755.081604,44.959324 751.557007,45.053429 
	C748.206238,45.142895 744.851196,45.072689 741.498047,45.072689 
	C741.791992,44.550133 742.085876,44.027573 742.379822,43.505016 
	C740.478638,41.372322 738.833801,37.790138 736.624512,37.399433 
	C731.544739,36.501068 726.092285,36.554054 720.980652,37.386032 
	C717.401306,37.968616 716.926636,36.695511 715.843262,34.042770 
	C715.052246,32.106083 713.006531,29.697075 711.189575,29.377493 
	C707.825562,28.785801 704.219666,29.570061 700.688354,29.782818 
	C701.226135,22.255896 700.630005,21.619267 693.048523,21.694056 
	C688.793030,21.736034 684.537109,21.855091 680.284241,22.014900 
	C677.955261,22.102417 676.618347,21.751736 675.576416,18.993031 
	C674.779663,16.883253 671.823608,14.455903 669.615845,14.228413 
	C663.441772,13.592236 657.102478,13.543856 650.941833,14.251738 
	C648.156189,14.571819 645.639648,17.233831 642.639526,18.772358 
	C640.504883,18.179283 638.731750,17.647213 636.964111,16.706139 
	C636.621399,14.358854 636.778320,12.094508 635.792847,10.567410 
	C634.641724,8.783828 632.583191,6.559159 630.762695,6.408617 
	C622.011108,5.684922 613.197754,5.748833 604.424744,5.225745 
	C599.158752,4.911769 595.037781,6.861480 593.561218,10.900095 
	C590.747437,10.922595 588.374023,10.878195 585.991699,10.455685 
	C584.813843,9.056337 583.631042,7.220249 582.479492,7.239618 
	C581.292542,7.259580 580.136047,9.086415 578.502136,10.072810 
	C563.025574,10.293125 548.013062,10.563323 532.999512,10.452699 
	C532.971680,6.095409 530.692932,4.944702 527.144409,5.442221 
	C522.453918,6.099847 517.281372,3.549267 513.036011,7.604164 
	C512.716125,7.909703 511.284668,6.838935 510.334198,6.735115 
	C506.993286,6.370178 503.464966,5.376900 500.331421,6.074980 
	C496.738403,6.875439 493.499969,10.553864 490.144379,5.695037 
	C489.820648,5.226251 488.581268,5.128593 487.834412,5.255541 
	C482.856964,6.101581 477.694061,6.796585 477.640228,13.833283 
	C472.889923,13.413472 471.373444,15.727564 471.579285,19.901903 
	C469.797546,20.246342 468.435822,20.522572 467.068085,20.357149 
	C465.917389,18.067339 465.076782,15.850681 463.488556,14.539881 
	C462.785370,13.959487 459.689270,14.763972 459.203613,15.716756 
	C457.711731,18.643373 455.917511,20.336288 452.499268,20.513853 
	C451.694092,20.555677 450.983307,23.105251 450.282715,23.109184 
	C444.386597,23.142277 438.655090,22.855995 432.922791,22.715052 
	C431.756195,22.686365 430.383301,23.294657 429.449829,22.863615 
	C425.198151,20.900299 422.796387,22.318363 421.674042,26.610125 
	C421.228119,28.315310 420.798462,30.024729 420.365845,31.714775 
	C401.557251,27.862446 400.999329,28.057135 396.874176,40.203777 
	C394.727386,39.850460 392.318207,39.886524 390.286926,39.028206 
	C386.253021,37.323673 384.135010,38.559097 382.646240,42.469234 
	C381.137726,46.431068 377.375793,47.891087 373.192780,46.622524 
	C369.852142,45.609432 367.860016,46.869816 366.790619,50.166821 
	C365.978271,52.671326 364.906067,54.126019 361.354980,53.543549 
	C358.423584,53.062725 353.425537,53.957893 352.325012,55.917713 
	C350.156006,59.780251 346.213898,61.579514 344.140533,64.812897 
	C341.691559,68.632103 338.965637,69.301468 335.121094,69.024513 
	C330.724670,68.707787 328.721466,70.882736 326.708496,74.978569 
	C324.446594,79.580811 322.606598,86.104355 314.895630,85.326050 
	C313.884186,85.223969 311.945923,86.847038 311.687469,87.961182 
	C310.096619,94.819038 305.367462,94.637192 299.864655,94.225670 
	C298.028503,94.088348 295.854156,96.109306 294.131927,97.509560 
	C292.559570,98.787941 291.430084,100.598877 290.030579,102.105583 
	C288.700500,103.537514 287.214264,104.826210 285.908508,106.278419 
	C284.933624,107.362633 284.374786,108.975319 283.222015,109.720276 
	C275.570770,114.664658 275.033203,117.859192 280.915405,124.405762 
	C279.892731,125.484039 279.003693,126.262749 277.644196,127.028763 
	C270.099762,127.168861 261.621307,124.546829 259.756439,135.402878 
	C257.179840,136.392838 255.131332,138.137329 252.995270,139.767075 
	C252.263443,140.325439 251.346832,140.826782 250.455673,140.960159 
	C245.745789,141.665009 244.479172,144.055557 245.615860,148.706467 
	C246.487991,152.274963 247.253342,156.284317 242.642731,158.652679 
	C240.419571,159.794662 238.575455,161.674637 236.559708,163.220428 
	C236.940460,163.734360 237.321198,164.248306 237.701950,164.762238 
	C231.623611,164.201416 230.484100,168.612335 229.336319,172.677292 
	C222.996201,173.374847 221.032684,174.720779 221.065079,178.172928 
	C221.125687,184.632721 223.770538,187.870758 229.065002,188.359360 
	C228.357483,189.488968 227.706024,190.294891 226.806519,190.804352 
	C225.430054,190.296310 224.237381,190.251007 223.184601,189.843933 
	C219.038651,188.240768 215.978165,189.255066 214.348984,193.481079 
	C212.293579,198.812729 213.884750,203.889999 217.979492,206.337769 
	C217.365631,207.373901 216.893417,208.108047 216.230438,208.453293 
	C210.258606,204.211929 206.808670,205.922928 205.460434,213.311203 
	C198.206909,212.769363 197.457596,213.673676 197.721756,221.003174 
	C197.813416,223.546005 196.917877,226.124420 196.474731,228.678116 
	C192.348145,229.130341 188.657654,229.803040 189.184647,235.020584 
	C189.681763,239.942322 190.348953,244.851105 190.665802,249.783295 
	C190.729156,250.769440 189.803131,252.286270 188.902618,252.793030 
	C181.922653,256.720825 180.319092,259.964905 181.811340,267.856781 
	C182.721527,272.670471 180.390442,276.996643 176.402893,279.506226 
	C174.844055,280.487274 173.258316,282.849792 173.256516,284.584808 
	C173.252701,288.221161 174.291092,291.858612 174.828583,295.060883 
	C174.196762,298.218597 173.298843,301.189697 173.090378,304.208405 
	C172.910492,306.813263 172.533508,308.666199 169.585922,309.320679 
	C166.690018,309.963623 165.746887,312.071259 165.971115,314.976349 
	C166.404297,320.588379 166.666763,326.213623 166.536331,331.906250 
	C133.048630,331.930542 100.024597,331.881958 66.999634,331.448364 
	C65.795609,329.137238 64.726799,325.725922 63.360737,325.602386 
	C60.729492,325.364502 57.697571,326.604065 55.328152,328.046356 
	C54.512428,328.542938 54.594734,331.801025 55.374691,333.163208 
	C55.863251,334.016479 58.417477,333.687012 60.354671,334.022369 
	C78.728134,352.187134 96.791779,370.217773 115.441475,388.833374 
	C83.225426,388.833374 52.112999,388.833374 20.993816,388.470154 
	C18.806530,385.841705 17.003286,382.851196 14.359738,381.476105 
	C10.067459,379.243378 4.156713,382.330811 3.316397,386.737213 
	C3.080630,387.973511 3.593004,389.771240 4.443855,390.655609 
	C5.057700,391.293610 6.800267,390.845642 8.348648,391.016479 
	C9.478470,392.421295 10.299046,393.691711 10.791085,395.098267 
	C5.468171,398.315735 5.196236,399.567444 8.257208,404.277710 
	C8.745336,405.028839 8.764199,406.084900 8.677671,407.162781 
	C7.646713,409.304474 5.889809,411.734131 6.497337,413.147217 
	C7.240674,414.876282 9.965361,415.753510 11.906775,417.320465 
	C12.022974,418.078766 12.065708,418.515686 11.779034,419.094055 
	C10.154934,419.958893 8.467344,420.395660 7.673059,421.484222 
	C6.833679,422.634583 6.139706,424.752167 6.663032,425.818848 
	C7.324522,427.167145 9.635729,428.986237 10.614765,428.671539 
	C14.357903,427.468414 19.013489,426.745850 19.464060,421.093750 
	C44.568501,421.014130 69.209389,420.999664 93.850243,421.019928 
	C95.322495,421.021118 96.794525,421.300323 97.766769,421.836121 
	C96.177925,424.481354 95.088966,426.740692 94.000000,429.333313 
	C94.000000,430.111115 94.000000,430.555542 93.692993,431.151184 
	C88.716194,434.319122 92.584045,436.611969 93.908371,439.428345 
	C91.322327,441.782349 88.875832,443.816620 86.360077,445.325531 
	C85.037094,442.899994 83.783386,440.999817 82.529663,439.099609 
	C80.854477,441.132538 79.179298,443.165497 77.761581,444.885986 
	C75.768723,446.198090 72.745995,447.087280 72.297966,448.694305 
	C71.065018,453.116699 74.937439,453.021210 77.605774,453.756531 
	C75.617081,455.387634 73.865585,456.715179 71.727715,457.992798 
	C67.560326,456.846863 57.598877,462.736176 57.166149,466.571960 
	C57.045918,467.637756 58.241444,468.851959 59.071777,470.372803 
	C61.298458,470.831665 63.286678,470.989075 65.274918,470.989410 
	C142.522659,471.001862 219.770386,470.998718 297.018127,471.006989 
	C299.012054,471.007202 301.005981,471.111115 303.053070,471.523682 
	C304.841919,472.915924 306.470093,474.490875 308.337860,474.862885 
	C311.325287,475.457977 314.919342,475.106903 315.444794,471.446960 
	C315.678497,469.819122 313.160339,467.796204 312.024048,465.643982 
	C313.423279,464.519379 314.689667,463.703461 316.136902,463.234070 
	C320.025482,464.128967 323.780243,465.222412 327.413452,464.908539 
	C328.571442,464.808502 329.406555,460.970886 330.029144,459.623260 
	C332.350647,458.347748 335.340118,457.670563 336.105530,455.983978 
	C336.735199,454.596588 334.725861,452.011536 334.038574,449.645782 
	C336.112671,448.185333 338.034332,447.036407 340.126709,446.222870 
	C345.890869,449.608459 348.037872,447.738312 348.085449,439.595825 
	C349.129883,438.830444 350.046143,438.355469 350.973602,438.278809 
	C352.218323,440.373260 353.161621,442.954803 354.777527,443.484497 
	C356.063354,443.906067 358.191010,441.855316 359.908722,440.840881 
	C362.295929,439.431091 364.613098,436.867798 367.025909,436.788147 
	C370.334137,436.678925 372.682037,435.664764 372.570007,432.815521 
	C372.504913,431.159851 369.766602,429.483765 368.017334,428.084076 
	C367.356079,427.554932 366.093292,427.777527 365.310913,427.377319 
	C366.641937,426.382263 367.766724,425.667358 369.227234,425.115204 
	C375.144989,428.646454 377.816833,427.027893 378.464050,420.093750 
	C586.543396,420.020874 794.159180,420.020874 1002.884705,420.020874 
	C998.224304,427.676361 994.135681,434.392578 989.890015,440.788391 
	C987.567261,439.963562 985.379028,439.054382 983.247559,439.172028 
	C982.491272,439.213776 980.962036,442.572662 981.353760,443.008759 
	C982.830505,444.652893 984.952698,445.717438 986.811523,447.339752 
	C985.983704,448.747742 985.177551,449.814972 984.207764,450.507263 
	C982.178772,449.698883 979.493042,448.290894 978.614868,449.030151 
	C976.643616,450.689514 974.928650,453.286377 974.429993,455.767029 
	C974.214539,456.839203 977.266113,458.568054 978.807251,460.346497 
	C977.131714,463.462585 975.482544,466.230804 973.397766,468.999420 
	C970.674805,469.042999 968.271484,468.673096 966.139832,469.271118 
	C964.659729,469.686340 962.966797,471.227905 962.468567,472.651215 
	C962.082642,473.753723 963.009888,475.990112 964.058228,476.749817 
	C965.368530,477.699432 967.401123,477.652527 969.066162,478.346558 
	C968.689087,479.401550 968.367676,480.145813 967.806030,481.185852 
	C960.003113,483.022461 960.003113,483.022461 960.000000,491.000000 
z"/>
<path fill="#FFFFFF" opacity="1.000000" stroke="none" 
	d="
M960.449951,491.000000 
	C960.003113,483.022461 960.003113,483.022461 968.213989,481.233887 
	C970.229309,480.950348 971.596375,480.914551 972.963440,480.878754 
	C971.645935,483.999481 970.328430,487.120239 969.005493,490.620483 
	C966.299988,491.000000 963.599976,491.000000 960.449951,491.000000 
z"/>
<path fill="#2FB1E5" opacity="1.000000" stroke="none" 
	d="
M227.054565,191.100830 
	C227.706024,190.294891 228.357483,189.488968 229.371704,188.213654 
	C231.529648,184.841660 233.324814,181.939041 235.429352,178.888336 
	C238.197433,175.174042 240.656158,171.607834 243.421280,167.897339 
	C248.168808,161.870209 252.609940,155.987350 257.356018,149.959442 
	C263.239624,143.825027 268.818237,137.835693 274.635162,131.572968 
	C275.953857,129.880203 277.034271,128.460831 278.114655,127.041458 
	C279.003693,126.262749 279.892731,125.484039 281.267029,124.348145 
	C287.515564,118.698494 293.278870,113.406036 299.347046,107.967575 
	C302.472565,105.228477 305.293243,102.635368 308.419373,99.898872 
	C308.958893,99.526741 309.160278,99.245140 309.431885,99.077057 
	C314.424408,95.987648 317.226105,90.178627 323.389954,88.057938 
	C326.171173,86.040833 328.604126,84.080353 331.391357,82.060883 
	C336.198212,79.018692 340.650757,76.035507 345.368683,72.946411 
	C346.088318,72.504837 346.542572,72.169167 347.336914,71.786751 
	C351.117767,69.437843 354.558472,67.135696 358.321960,64.803650 
	C359.791443,63.867626 360.938141,62.961510 362.063782,62.049835 
	C362.042725,62.044270 362.066986,62.084583 362.414795,62.040627 
	C364.522278,61.036133 366.281982,60.075596 368.378967,59.059837 
	C370.155975,58.043720 371.595642,57.082821 373.362305,56.065350 
	C374.459198,55.617111 375.229156,55.225445 376.313293,54.810822 
	C377.452728,54.209290 378.277924,53.630714 379.465393,53.017536 
	C384.935486,50.124920 389.915436,46.997738 395.190765,44.492432 
	C399.562744,42.416130 404.282837,41.072891 409.143066,39.250679 
	C411.625122,38.342113 413.812836,37.587757 416.359955,36.774651 
	C422.937958,34.437740 429.074738,31.894995 435.393616,29.941048 
	C445.892212,26.694639 456.507782,23.826342 467.074066,20.798798 
	C468.435822,20.522572 469.797546,20.246342 471.963623,19.823910 
	C492.585968,14.961913 512.685669,12.164716 533.000610,10.833522 
	C548.013062,10.563323 563.025574,10.293125 578.737183,10.400331 
	C581.624451,10.796423 583.812500,10.815109 586.000610,10.833796 
	C588.374023,10.878195 590.747437,10.922595 593.931030,11.099781 
	C608.813721,13.193428 622.886108,15.154290 636.958557,17.115147 
	C638.731750,17.647213 640.504883,18.179283 643.046021,18.841534 
	C646.832825,19.646103 649.864563,20.268126 652.868225,21.004482 
	C662.847839,23.451052 672.923523,25.585787 682.751526,28.541094 
	C688.785522,30.355505 694.303528,33.826801 700.279236,35.903996 
	C725.114197,44.536758 748.489380,56.370155 770.429138,70.532463 
	C787.882263,81.798653 804.547119,94.605988 820.141235,108.342041 
	C835.718445,122.063194 850.334045,137.094589 863.908081,152.814972 
	C880.156250,171.632309 894.081787,192.340652 905.999695,214.234650 
	C922.992981,245.452515 935.837830,278.322968 943.965698,312.964569 
	C946.149963,322.274261 947.923462,331.680298 949.931763,341.476837 
	C951.040894,350.273560 952.103699,358.635529 953.099487,367.442810 
	C953.337280,372.891296 953.642029,377.894531 953.483154,382.939209 
	C946.212646,382.987122 939.405823,382.989685 932.598938,383.000641 
	C899.065735,383.054718 865.532593,383.110992 831.581970,383.099609 
	C827.544250,383.546143 826.286865,381.819733 825.928894,378.332153 
	C825.177002,371.007629 824.219238,363.690521 822.985596,356.431610 
	C818.363525,329.235199 809.673706,303.225525 796.273071,279.260162 
	C786.975037,262.631775 775.330505,247.257309 764.041199,231.829910 
	C759.725281,225.932037 753.382629,221.543091 748.138489,216.291885 
	C742.109314,210.254669 736.846985,203.308533 730.242371,198.016907 
	C713.222046,184.380386 694.980652,172.446655 675.211670,163.105240 
	C655.693848,153.882523 635.438049,146.579422 614.084534,143.032806 
	C599.027161,140.531891 583.859314,138.352066 568.652100,137.215027 
	C558.138245,136.428894 547.417419,137.104019 536.890320,138.147324 
	C524.864868,139.339157 512.805847,141.012161 501.024414,143.650253 
	C484.012451,147.459564 467.081970,151.670059 451.649872,160.520920 
	C441.474609,166.356842 430.374054,170.586792 420.238464,176.482529 
	C411.255920,181.707535 402.726898,187.850952 394.558197,194.299026 
	C385.639160,201.339401 377.297272,209.121750 368.861328,216.754807 
	C367.004883,218.434555 365.952942,220.969406 364.285645,222.898895 
	C359.911743,227.960648 355.402740,232.905655 350.639709,238.044754 
	C347.759918,241.510330 345.187958,244.828339 342.371765,248.418335 
	C337.807098,255.472244 333.486664,262.254181 328.999664,269.348328 
	C325.184998,276.758728 321.536896,283.856964 317.584686,291.136169 
	C315.148621,297.197693 313.016693,303.078217 310.527008,308.993713 
	C309.742218,310.004395 309.315155,310.980072 308.578339,312.153931 
	C307.234436,315.568390 306.200317,318.784637 305.065918,322.421997 
	C303.504700,323.228729 302.047089,323.933075 300.582245,323.948303 
	C290.947479,324.048431 281.311157,323.987579 271.675385,324.002258 
	C239.116379,324.051819 206.557373,324.110962 173.740021,324.037292 
	C173.464584,323.218262 173.447510,322.528381 173.651337,321.475952 
	C174.803040,316.977631 175.852310,312.863770 176.623962,308.698456 
	C177.157990,305.815704 176.992538,302.780731 177.716568,299.961975 
	C178.503922,296.896729 179.958710,294.002869 181.436523,290.824860 
	C182.778305,287.076660 183.806046,283.537872 184.912506,279.625763 
	C185.938568,276.167084 186.885925,273.081696 187.996552,269.675781 
	C189.717743,265.569092 191.275681,261.782928 192.911316,257.632812 
	C195.673691,250.883667 198.358398,244.498489 201.365738,237.949890 
	C203.142715,234.559113 204.597061,231.331802 206.357803,227.924942 
	C209.916534,221.444336 213.168869,215.143265 216.421204,208.842194 
	C216.893417,208.108047 217.365631,207.373901 218.248032,206.203796 
	C218.808533,205.194229 218.958878,204.620636 219.405930,203.876282 
	C221.412979,200.803314 223.123306,197.901093 224.981476,194.700745 
	C225.771057,193.302017 226.412811,192.201416 227.054565,191.100830 
z"/>
<path fill="#FFFFFF" opacity="1.000000" stroke="none" 
	d="
M173.998367,324.166443 
	C206.557373,324.110962 239.116379,324.051819 271.675385,324.002258 
	C281.311157,323.987579 290.947479,324.048431 300.582245,323.948303 
	C302.047089,323.933075 303.504700,323.228729 305.445312,322.420959 
	C308.641693,320.946503 311.358459,319.894165 314.766174,318.574158 
	C312.285431,315.781006 310.586761,313.868378 308.888092,311.955780 
	C309.315155,310.980072 309.742218,310.004395 310.890900,308.972900 
	C314.494232,307.786072 316.124084,303.320129 320.306335,305.653656 
	C320.432617,304.502106 320.709229,303.342529 320.648529,302.200928 
	C320.565643,300.641632 319.457031,298.379181 320.124115,297.663727 
	C323.786346,293.735809 321.045593,292.366638 317.888794,290.955170 
	C321.536896,283.856964 325.184998,276.758728 329.284363,269.508484 
	C330.808868,270.386200 331.747833,271.644348 332.995361,272.377411 
	C334.101898,273.027618 335.551147,273.094543 336.849121,273.418945 
	C337.048065,272.232574 337.419037,271.042877 337.396393,269.860748 
	C337.374786,268.732178 337.064056,267.567139 336.670563,266.495117 
	C335.154480,262.364563 336.647156,259.881561 340.299286,257.551727 
	C342.403168,256.209534 343.467682,253.238098 345.268341,250.782593 
	C346.308807,248.211823 347.378235,247.432770 349.820007,249.041412 
	C350.608948,249.561188 352.411011,248.543182 353.749634,248.228622 
	C352.095367,244.980164 355.556183,240.344406 350.947601,237.897186 
	C355.402740,232.905655 359.911743,227.960648 364.285645,222.898895 
	C365.952942,220.969406 367.004883,218.434555 368.861328,216.754807 
	C377.297272,209.121750 385.639160,201.339401 394.558197,194.299026 
	C402.726898,187.850952 411.255920,181.707535 420.238464,176.482529 
	C430.374054,170.586792 441.474609,166.356842 451.649872,160.520920 
	C467.081970,151.670059 484.012451,147.459564 501.024414,143.650253 
	C512.805847,141.012161 524.864868,139.339157 536.890320,138.147324 
	C547.417419,137.104019 558.138245,136.428894 568.652100,137.215027 
	C583.859314,138.352066 599.027161,140.531891 614.084534,143.032806 
	C635.438049,146.579422 655.693848,153.882523 675.211670,163.105240 
	C694.980652,172.446655 713.222046,184.380386 730.242371,198.016907 
	C736.846985,203.308533 742.109314,210.254669 748.138489,216.291885 
	C753.382629,221.543091 759.725281,225.932037 764.041199,231.829910 
	C775.330505,247.257309 786.975037,262.631775 796.273071,279.260162 
	C809.673706,303.225525 818.363525,329.235199 822.985596,356.431610 
	C824.219238,363.690521 825.177002,371.007629 825.928894,378.332153 
	C826.286865,381.819733 827.544250,383.546143 831.581848,383.466125 
	C831.666016,385.544128 831.332947,387.188751 830.536255,388.906250 
	C679.836365,388.986115 529.600037,389.014008 379.363922,388.843140 
	C376.486786,388.839874 373.221436,387.000000 370.806396,385.145569 
	C361.865143,378.279755 353.216705,371.033295 344.435852,363.957703 
	C334.328583,355.813232 324.063538,347.857788 314.127991,339.509674 
	C308.324554,334.633423 302.649597,331.189270 294.390808,331.787628 
	C282.792542,332.627960 271.087891,332.014893 259.428772,331.997101 
	C228.619171,331.950073 197.809586,331.888916 167.000000,331.833374 
	C166.666763,326.213623 166.404297,320.588379 165.971115,314.976349 
	C165.746887,312.071259 166.690018,309.963623 169.585922,309.320679 
	C172.533508,308.666199 172.910492,306.813263 173.090378,304.208405 
	C173.298843,301.189697 174.196762,298.218597 174.828583,295.060883 
	C174.291092,291.858612 173.252701,288.221161 173.256516,284.584808 
	C173.258316,282.849792 174.844055,280.487274 176.402893,279.506226 
	C180.390442,276.996643 182.721527,272.670471 181.811340,267.856781 
	C180.319092,259.964905 181.922653,256.720825 188.902618,252.793030 
	C189.803131,252.286270 190.729156,250.769440 190.665802,249.783295 
	C190.348953,244.851105 189.681763,239.942322 189.184647,235.020584 
	C188.657654,229.803040 192.348145,229.130341 196.474731,228.678116 
	C196.917877,226.124420 197.813416,223.546005 197.721756,221.003174 
	C197.457596,213.673676 198.206909,212.769363 205.460434,213.311203 
	C206.808670,205.922928 210.258606,204.211929 216.230438,208.453293 
	C213.168869,215.143265 209.916534,221.444336 206.220123,227.606354 
	C205.064697,226.373398 204.507690,225.115311 203.584229,224.246948 
	C203.027771,223.723709 201.603668,223.371094 201.098480,223.716217 
	C200.277618,224.276978 199.336777,225.523178 199.415695,226.392029 
	C199.772079,230.316025 200.468933,234.209106 201.043106,238.113327 
	C198.358398,244.498489 195.673691,250.883667 192.562317,257.588928 
	C186.599777,255.529587 186.622986,255.532089 185.961288,261.650085 
	C185.840286,262.768738 184.986771,263.998505 185.273529,264.930084 
	C185.822220,266.712555 186.947357,268.317627 187.833282,269.996307 
	C186.885925,273.081696 185.938568,276.167084 184.530670,279.626831 
	C182.428970,280.609406 180.546051,280.901733 179.217468,281.918396 
	C177.992981,282.855408 176.603973,284.588440 176.635849,285.938995 
	C176.696121,288.493988 176.769699,291.896881 181.122467,291.034271 
	C179.958710,294.002869 178.503922,296.896729 177.716568,299.961975 
	C176.992538,302.780731 177.157990,305.815704 176.623962,308.698456 
	C175.852310,312.863770 174.803040,316.977631 173.440765,321.084290 
	C171.691452,321.375244 170.373596,321.695374 169.055756,322.015472 
	C169.604477,323.914551 170.153183,325.813660 170.701889,327.712738 
	C171.800720,326.530640 172.899551,325.348572 173.998367,324.166443 
M443.064453,322.981293 
	C439.097687,320.696747 436.448120,323.120392 434.922699,326.094055 
	C434.199860,327.503174 435.647766,330.025787 435.812897,332.695282 
	C433.776459,336.694855 431.797058,340.725006 429.677704,344.680145 
	C428.723541,346.460724 427.247253,347.985291 426.444550,349.817322 
	C425.434326,352.123077 424.871124,354.624725 423.366455,357.029877 
	C420.913513,359.539886 417.390045,361.667389 416.317139,364.670441 
	C415.301147,367.514221 418.499054,371.232788 416.257721,374.730164 
	C416.164215,374.876038 417.932465,376.215088 418.975922,377.846161 
	C418.204895,382.750793 421.050446,383.063538 424.933380,383.060181 
	C515.261536,382.982269 605.589783,382.999969 695.917969,383.000000 
	C697.547058,383.000000 699.176147,383.000000 700.779968,383.000000 
	C700.881287,382.001373 701.058838,381.481293 700.962830,381.017853 
	C698.617493,369.689941 696.056030,358.439209 690.110596,348.292389 
	C688.646362,345.793396 686.919922,343.240875 686.304321,340.491241 
	C684.572083,332.754028 680.274597,326.646790 675.003723,320.232147 
	C673.019165,317.785950 671.034607,315.339752 668.779053,312.273773 
	C667.220215,310.383820 665.732727,308.429291 664.091125,306.614197 
	C651.298340,292.469330 635.568542,282.312775 618.510864,274.315247 
	C602.171753,266.654541 584.869446,261.935333 566.665527,262.103394 
	C555.985046,262.201965 545.273560,262.950714 534.648193,264.083893 
	C517.975159,265.862000 502.991150,272.886536 488.272186,280.377380 
	C484.020447,282.541168 480.156189,285.466309 475.209900,288.017303 
	C466.541016,287.569397 464.243469,287.355896 462.353119,298.977386 
	C461.915070,299.024292 461.477020,299.071167 460.946198,298.486420 
	C460.224854,298.506317 459.503510,298.526215 458.782166,298.546112 
	C459.226929,299.350647 459.671722,300.155182 460.668457,301.279968 
	C455.382782,306.950256 450.097107,312.620514 444.529419,318.593323 
	C444.390076,319.475189 444.111694,321.237030 443.064453,322.981293 
M323.216522,284.518860 
	C321.732910,286.791779 322.122406,288.932068 324.694580,289.521606 
	C325.814484,289.778290 328.405487,288.120514 328.580994,287.046570 
	C328.935333,284.878601 328.094666,282.515259 327.746857,280.232513 
	C326.349854,281.436066 324.952881,282.639648 323.216522,284.518860 
z"/>
<path fill="#4C4C4C" opacity="1.000000" stroke="none" 
	d="
M166.536331,331.906250 
	C197.809586,331.888916 228.619171,331.950073 259.428772,331.997101 
	C271.087891,332.014893 282.792542,332.627960 294.390808,331.787628 
	C302.649597,331.189270 308.324554,334.633423 314.127991,339.509674 
	C324.063538,347.857788 334.328583,355.813232 344.435852,363.957703 
	C353.216705,371.033295 361.865143,378.279755 370.806396,385.145569 
	C373.221436,387.000000 376.486786,388.839874 379.363922,388.843140 
	C529.600037,389.014008 679.836365,388.986115 830.999939,388.979126 
	C842.891174,388.986084 853.855164,389.012115 864.819092,388.996338 
	C896.212219,388.951080 927.605286,388.888885 959.370361,388.905792 
	C960.495483,388.929962 961.248596,388.881683 962.465210,388.906250 
	C973.618835,388.930573 984.308899,388.881989 995.412903,388.906006 
	C997.223022,388.930176 998.619324,388.881744 1000.273804,388.868134 
	C1000.632507,388.608124 1000.732971,388.313293 1000.901489,387.657471 
	C998.349915,382.849243 995.730347,378.401947 992.991394,373.661316 
	C992.286133,372.564606 991.700317,371.761292 991.059570,370.599121 
	C990.335999,369.160217 989.670654,368.078094 988.998230,367.000397 
	C985.036438,360.650909 981.072937,354.302399 977.058044,347.608124 
	C976.505981,346.271423 976.005920,345.280182 975.342102,344.005737 
	C974.552490,342.398560 973.926697,341.074585 973.529297,339.368774 
	C974.505188,336.380157 975.252747,333.773376 976.000244,331.166595 
	C982.730774,333.782501 989.461243,336.398407 996.747559,339.389648 
	C1002.188293,341.548279 1007.073242,343.331604 1011.958191,345.114929 
	C1020.035950,348.414703 1028.113770,351.714539 1036.747314,355.389587 
	C1042.188232,357.548187 1047.073242,359.331573 1051.958252,361.114960 
	C1060.036011,364.414764 1068.113770,367.714539 1076.747314,371.389587 
	C1082.188232,373.548187 1087.073242,375.331573 1091.958252,377.114960 
	C1100.036011,380.414764 1108.113770,383.714539 1116.747314,387.389587 
	C1122.188232,389.548187 1127.073242,391.331573 1131.958252,393.114960 
	C1137.310547,395.410309 1142.731689,397.561676 1147.981812,400.070648 
	C1150.128662,401.096497 1151.905640,402.895966 1153.935669,405.054657 
	C1153.462402,406.597260 1153.091431,407.815033 1152.313232,408.191833 
	C1149.278809,409.661316 1146.115479,410.864410 1143.000000,412.166626 
	C1133.765991,415.857971 1124.531860,419.549316 1114.744873,423.620972 
	C1110.461304,425.389740 1106.730713,426.778198 1103.000000,428.166626 
	C1093.765991,431.857971 1084.531860,435.549316 1074.744385,439.621063 
	C1069.448242,441.960876 1064.705322,443.920288 1059.962524,445.879700 
	C1051.761841,449.006012 1043.554077,452.113586 1035.365112,455.270294 
	C1032.979614,456.189819 1030.648315,457.249451 1027.745361,458.615784 
	C1024.786743,459.950989 1022.374695,460.915253 1019.962708,461.879456 
	C1012.956299,464.589233 1005.952637,467.306152 998.940796,470.001801 
	C997.747925,470.460388 996.519958,470.827423 994.749390,471.618866 
	C989.447998,473.960480 984.705322,475.919952 979.962708,477.879456 
	C977.737915,478.668243 975.513184,479.457062 973.125916,480.562317 
	C971.596375,480.914551 970.229309,480.950348 968.454224,480.938110 
	C968.367676,480.145813 968.689087,479.401550 969.385559,478.177216 
	C971.118225,474.797760 972.475830,471.898407 973.833374,468.999023 
	C975.482544,466.230804 977.131714,463.462585 978.958374,460.027161 
	C980.881104,456.534027 982.626282,453.708130 984.371460,450.882263 
	C985.177551,449.814972 985.983704,448.747742 986.958374,447.023438 
	C988.100281,444.613861 989.073669,442.861328 990.046997,441.108826 
	C994.135681,434.392578 998.224304,427.676361 1002.884705,420.020874 
	C794.159180,420.020874 586.543396,420.020874 378.095947,420.021729 
	C374.473358,421.665894 371.682434,423.309204 368.891510,424.952515 
	C367.766724,425.667358 366.641937,426.382263 365.039612,427.540710 
	C360.028809,431.282990 355.495605,434.581726 350.962402,437.880493 
	C350.046143,438.355469 349.129883,438.830444 347.767395,439.735657 
	C344.866119,442.073029 342.411041,443.980255 339.955994,445.887451 
	C338.034332,447.036407 336.112671,448.185333 333.720520,449.781891 
	C327.485382,454.448822 321.720703,458.668152 315.956024,462.887512 
	C314.689667,463.703461 313.423279,464.519379 311.662415,465.671356 
	C308.445221,467.727142 305.722565,469.446899 302.999908,471.166656 
	C301.005981,471.111115 299.012054,471.007202 297.018127,471.006989 
	C219.770386,470.998718 142.522659,471.001862 65.274918,470.989410 
	C63.286678,470.989075 61.298458,470.831665 59.220112,470.056885 
	C63.458027,465.591736 67.786057,461.817230 72.114090,458.042725 
	C73.865585,456.715179 75.617081,455.387634 77.782982,453.643311 
	C78.812462,452.522552 79.427528,451.818542 80.348740,450.984375 
	C81.808144,449.916992 82.961395,448.979736 84.357574,447.967590 
	C85.210114,447.212128 85.819733,446.531494 86.429352,445.850861 
	C88.875832,443.816620 91.322327,441.782349 94.220963,439.291962 
	C96.819527,436.905334 98.965958,434.974792 101.413986,432.921082 
	C103.158836,431.568909 104.602104,430.339874 106.355789,428.976257 
	C108.723076,426.358917 110.779938,423.876190 113.024719,421.166626 
	C109.718399,421.166626 105.859459,421.166626 101.733521,421.096619 
	C100.622215,421.079559 99.777908,421.132538 98.802490,421.171783 
	C98.503098,421.207275 98.368187,421.304657 98.266655,421.450165 
	C96.794525,421.300323 95.322495,421.021118 93.850243,421.019928 
	C69.209389,420.999664 44.568501,421.014130 19.094431,421.015808 
	C16.210310,420.324707 14.159379,419.638641 12.108446,418.952576 
	C12.065708,418.515686 12.022974,418.078766 12.036780,417.027252 
	C13.076396,415.313202 14.059471,414.213776 15.355074,412.977570 
	C17.430902,410.598633 19.194204,408.356476 20.969603,405.700623 
	C21.231672,400.963623 19.958939,397.920654 14.943410,398.035034 
	C14.983210,398.011902 14.939668,398.093018 14.963224,397.719482 
	C15.863284,394.686279 19.697584,392.393555 16.413986,389.093872 
	C18.217756,388.958618 19.609165,388.895996 21.000572,388.833374 
	C52.112999,388.833374 83.225426,388.833374 115.441475,388.833374 
	C96.791779,370.217773 78.728134,352.187134 60.209343,333.684875 
	C59.651180,333.088531 59.521412,332.976501 59.454105,332.834839 
	C59.405270,332.731995 59.429409,332.481293 59.437542,332.480591 
	C61.957596,332.254272 64.479095,332.044006 67.000565,331.833374 
	C100.024597,331.881958 133.048630,331.930542 166.536331,331.906250 
z"/>
<path fill="#FFFFFF" opacity="1.000000" stroke="none" 
	d="
M973.300903,339.750580 
	C973.926697,341.074585 974.552490,342.398560 975.118408,344.360229 
	C972.753418,346.176910 970.274841,348.481964 968.200500,348.162415 
	C966.667053,347.926178 965.660217,344.270996 963.962097,341.354828 
	C962.457092,340.593201 959.777954,339.237335 956.986267,337.824524 
	C954.887634,338.775482 952.386597,339.908783 949.885498,341.042084 
	C947.923462,331.680298 946.149963,322.274261 943.965698,312.964569 
	C935.837830,278.322968 922.992981,245.452515 905.999695,214.234650 
	C894.081787,192.340652 880.156250,171.632309 863.908081,152.814972 
	C850.334045,137.094589 835.718445,122.063194 820.141235,108.342041 
	C804.547119,94.605988 787.882263,81.798653 770.429138,70.532463 
	C748.489380,56.370155 725.114197,44.536758 700.279236,35.903996 
	C694.303528,33.826801 688.785522,30.355505 682.751526,28.541094 
	C672.923523,25.585787 662.847839,23.451052 652.868225,21.004482 
	C649.864563,20.268126 646.832825,19.646103 643.407471,18.902540 
	C645.639648,17.233831 648.156189,14.571819 650.941833,14.251738 
	C657.102478,13.543856 663.441772,13.592236 669.615845,14.228413 
	C671.823608,14.455903 674.779663,16.883253 675.576416,18.993031 
	C676.618347,21.751736 677.955261,22.102417 680.284241,22.014900 
	C684.537109,21.855091 688.793030,21.736034 693.048523,21.694056 
	C700.630005,21.619267 701.226135,22.255896 700.688354,29.782818 
	C704.219666,29.570061 707.825562,28.785801 711.189575,29.377493 
	C713.006531,29.697075 715.052246,32.106083 715.843262,34.042770 
	C716.926636,36.695511 717.401306,37.968616 720.980652,37.386032 
	C726.092285,36.554054 731.544739,36.501068 736.624512,37.399433 
	C738.833801,37.790138 740.478638,41.372322 742.379822,43.505016 
	C742.085876,44.027573 741.791992,44.550133 741.498047,45.072689 
	C744.851196,45.072689 748.206238,45.142895 751.557007,45.053429 
	C755.081604,44.959324 756.959656,47.263386 756.848511,51.287231 
	C756.815979,52.463875 757.748474,54.727657 758.055298,54.696342 
	C763.976807,54.091995 764.382935,58.011700 764.164490,62.682884 
	C767.601746,62.160168 770.634033,61.576153 773.694092,61.267159 
	C776.962036,60.937176 778.642639,62.095997 780.255981,65.574799 
	C783.036926,71.571106 786.776672,77.433678 793.476013,80.118019 
	C794.440918,80.504639 795.881409,79.517639 797.022522,79.690231 
	C799.407654,80.050980 802.870300,79.980858 803.895264,81.465317 
	C808.013245,87.429123 813.419128,92.239693 817.712097,97.892281 
	C820.032715,100.947861 821.767151,102.245659 825.298950,102.195274 
	C826.164612,102.182922 827.812927,103.763306 827.809814,104.606689 
	C827.786377,111.000519 832.218201,110.320824 836.168701,109.906715 
	C843.627441,109.124863 844.107483,109.328918 845.420654,116.211868 
	C853.582764,118.627632 854.013733,119.077148 851.691772,127.250580 
	C850.553833,131.256241 850.828247,133.520370 855.277100,135.060577 
	C857.891296,135.965607 859.907532,138.598022 863.201904,141.272903 
	C865.791565,140.775345 869.232544,141.256180 869.113464,146.864853 
	C869.098511,147.568939 870.021057,148.719223 870.734985,148.943390 
	C875.411499,150.411682 877.124390,153.894547 877.221680,156.751541 
	C880.545715,159.717789 882.833008,161.840775 885.223511,163.840408 
	C885.908752,164.413559 886.858704,164.823212 887.744873,164.977509 
	C892.496460,165.804825 893.761597,168.393433 892.222107,172.873871 
	C890.838074,176.901794 890.328918,180.399078 895.937134,182.261627 
	C898.156555,182.998734 899.488708,186.407501 901.684143,189.179810 
	C908.027161,188.862259 908.308105,189.656479 908.307129,197.368912 
	C908.306702,201.116837 907.511169,206.224686 913.619568,207.704010 
	C914.788818,207.987183 916.085510,211.709579 915.733582,213.539490 
	C914.803162,218.376587 915.754822,221.341324 920.677063,223.292770 
	C922.284363,223.930008 923.449341,226.978668 923.830017,229.101425 
	C924.360474,232.059128 923.963623,235.183151 923.963623,238.090744 
	C931.476013,240.271729 931.781494,240.711349 929.992798,247.899811 
	C928.546570,253.712219 931.266785,257.988220 934.860107,262.014801 
	C935.403259,262.623444 936.284180,263.236084 936.354309,263.914551 
	C937.119385,271.316498 943.407593,277.971130 938.994873,286.261444 
	C940.352722,286.923676 941.484192,287.498444 942.634521,288.032593 
	C947.364319,290.228729 949.197388,293.737610 948.248840,298.736053 
	C948.094971,299.546539 947.919250,300.410583 948.042236,301.205200 
	C948.418335,303.635742 948.935059,306.044556 949.375671,308.350128 
	C957.156921,310.172882 958.631958,311.542725 955.672424,318.466614 
	C953.005859,324.705200 956.527100,329.149750 958.616211,334.819550 
	C960.091003,331.148041 961.297729,327.332367 963.159912,323.869171 
	C964.018799,322.271790 966.093628,320.535858 967.739197,320.405670 
	C969.045227,320.302338 970.922058,322.318359 971.819092,323.825653 
	C972.480957,324.937653 971.971985,326.746429 971.595154,328.629639 
	C969.701721,328.658325 968.197815,328.302155 965.624451,327.692657 
	C968.519836,332.240570 970.910339,335.995575 973.300903,339.750580 
z"/>
<path fill="#FFFFFF" opacity="1.000000" stroke="none" 
	d="
M323.041656,88.114571 
	C317.226105,90.178627 314.424408,95.987648 309.431885,99.077057 
	C309.160278,99.245140 308.958893,99.526741 307.995605,99.886406 
	C300.467529,100.076767 299.070435,101.452133 299.042206,108.113571 
	C293.278870,113.406036 287.515564,118.698494 281.400635,124.048576 
	C275.033203,117.859192 275.570770,114.664658 283.222015,109.720276 
	C284.374786,108.975319 284.933624,107.362633 285.908508,106.278419 
	C287.214264,104.826210 288.700500,103.537514 290.030579,102.105583 
	C291.430084,100.598877 292.559570,98.787941 294.131927,97.509560 
	C295.854156,96.109306 298.028503,94.088348 299.864655,94.225670 
	C305.367462,94.637192 310.096619,94.819038 311.687469,87.961182 
	C311.945923,86.847038 313.884186,85.223969 314.895630,85.326050 
	C322.606598,86.104355 324.446594,79.580811 326.708496,74.978569 
	C328.721466,70.882736 330.724670,68.707787 335.121094,69.024513 
	C338.965637,69.301468 341.691559,68.632103 344.140533,64.812897 
	C346.213898,61.579514 350.156006,59.780251 352.325012,55.917713 
	C353.425537,53.957893 358.423584,53.062725 361.354980,53.543549 
	C364.906067,54.126019 365.978271,52.671326 366.790619,50.166821 
	C367.860016,46.869816 369.852142,45.609432 373.192780,46.622524 
	C377.375793,47.891087 381.137726,46.431068 382.646240,42.469234 
	C384.135010,38.559097 386.253021,37.323673 390.286926,39.028206 
	C392.318207,39.886524 394.727386,39.850460 396.874176,40.203777 
	C400.999329,28.057135 401.557251,27.862446 420.365845,31.714775 
	C420.798462,30.024729 421.228119,28.315310 421.674042,26.610125 
	C422.796387,22.318363 425.198151,20.900299 429.449829,22.863615 
	C430.383301,23.294657 431.756195,22.686365 432.922791,22.715052 
	C438.655090,22.855995 444.386597,23.142277 450.282715,23.109184 
	C450.983307,23.105251 451.694092,20.555677 452.499268,20.513853 
	C455.917511,20.336288 457.711731,18.643373 459.203613,15.716756 
	C459.689270,14.763972 462.785370,13.959487 463.488556,14.539881 
	C465.076782,15.850681 465.917389,18.067339 467.068085,20.357147 
	C456.507782,23.826342 445.892212,26.694639 435.393616,29.941048 
	C429.074738,31.894995 422.937958,34.437740 416.351013,36.395821 
	C415.459473,31.665449 411.398926,32.401886 409.058136,32.326405 
	C406.260223,32.236183 402.791290,33.432053 400.742676,35.305893 
	C398.825439,37.059566 400.767029,38.758526 403.235596,38.944492 
	C405.107574,39.085510 406.977753,39.250530 408.848724,39.404877 
	C404.282837,41.072891 399.562744,42.416130 395.190765,44.492432 
	C389.915436,46.997738 384.935486,50.124920 379.161438,52.890972 
	C377.663208,53.477268 376.831146,54.155521 375.999115,54.833778 
	C375.229156,55.225445 374.459198,55.617111 373.352478,55.666641 
	C373.039062,54.672977 373.165405,54.005035 373.064758,53.373264 
	C372.843414,51.984344 372.507324,50.613708 372.218079,49.235607 
	C371.065491,50.284492 369.342773,51.134048 368.890472,52.427780 
	C368.165192,54.502216 368.281189,56.870789 368.041626,59.115059 
	C366.281982,60.075596 364.522278,61.036133 362.394409,61.650002 
	C362.424957,57.441231 360.113129,57.789955 357.193573,57.382359 
	C349.983826,56.375839 354.841187,63.026718 351.952484,64.667381 
	C345.444305,65.534935 345.306091,65.729248 346.996826,71.833504 
	C346.542572,72.169167 346.088318,72.504837 345.046570,72.806183 
	C341.990784,70.947075 339.651550,70.953949 337.348602,73.131554 
	C336.660797,73.781921 335.569092,74.775551 334.944336,74.601273 
	C329.555389,73.098045 330.241028,76.935150 329.641907,80.035889 
	C325.317017,81.288895 323.296143,84.016258 323.041656,88.114571 
M293.245911,104.235779 
	C289.080231,104.069321 288.085052,107.101410 287.462189,110.256371 
	C287.395355,110.594948 289.780579,111.890816 289.932373,111.726997 
	C291.667267,109.854874 293.207916,107.799141 294.719177,105.733002 
	C294.804260,105.616676 294.180481,104.981850 293.245911,104.235779 
M285.832550,117.315659 
	C285.800751,115.713837 285.768982,114.112022 285.737183,112.510193 
	C284.173004,113.036781 282.025452,113.121597 281.201904,114.209076 
	C280.304047,115.394684 280.633606,117.509834 280.428101,119.219788 
	C282.092133,118.798393 283.756165,118.376999 285.832550,117.315659 
z"/>
<path fill="#FFFFFF" opacity="1.000000" stroke="none" 
	d="
M257.051056,150.104507 
	C252.609940,155.987350 248.168808,161.870209 243.027252,167.890106 
	C239.337448,168.175323 236.348053,168.323456 233.499451,168.464615 
	C233.008469,170.761139 232.942978,172.830856 232.122299,174.537399 
	C230.438232,178.039200 231.864136,179.042847 235.119980,179.036423 
	C233.324814,181.939041 231.529648,184.841660 229.427765,187.889969 
	C223.770538,187.870758 221.125687,184.632721 221.065079,178.172928 
	C221.032684,174.720779 222.996201,173.374847 229.336319,172.677292 
	C230.484100,168.612335 231.623611,164.201416 237.701950,164.762238 
	C237.321198,164.248306 236.940460,163.734360 236.559708,163.220428 
	C238.575455,161.674637 240.419571,159.794662 242.642731,158.652679 
	C247.253342,156.284317 246.487991,152.274963 245.615860,148.706467 
	C244.479172,144.055557 245.745789,141.665009 250.455673,140.960159 
	C251.346832,140.826782 252.263443,140.325439 252.995270,139.767075 
	C255.131332,138.137329 257.179840,136.392838 259.756439,135.402878 
	C261.621307,124.546829 270.099762,127.168861 277.644196,127.028770 
	C277.034271,128.460831 275.953857,129.880203 274.457275,131.194534 
	C269.554108,128.719940 264.388794,129.850357 264.349915,133.221802 
	C265.143372,134.332138 265.932953,135.437042 267.373138,137.452362 
	C264.243713,137.680801 261.957458,137.582748 259.819885,138.099594 
	C258.459930,138.428436 256.304749,139.624283 256.264954,140.510330 
	C256.122162,143.690216 256.728149,146.903717 257.051056,150.104507 
z"/>
<path fill="#FFFFFF" opacity="1.000000" stroke="none" 
	d="
M532.999512,10.452700 
	C512.685669,12.164716 492.585968,14.961913 472.383606,19.755703 
	C471.373444,15.727564 472.889923,13.413472 477.640228,13.833283 
	C477.694061,6.796585 482.856964,6.101581 487.834412,5.255541 
	C488.581268,5.128593 489.820648,5.226251 490.144379,5.695037 
	C493.499969,10.553864 496.738403,6.875439 500.331421,6.074980 
	C503.464966,5.376900 506.993286,6.370178 510.334198,6.735115 
	C511.284668,6.838935 512.716125,7.909703 513.036011,7.604164 
	C517.281372,3.549267 522.453918,6.099847 527.144409,5.442221 
	C530.692932,4.944702 532.971680,6.095409 532.999512,10.452700 
z"/>
<path fill="#FFFFFF" opacity="1.000000" stroke="none" 
	d="
M636.964111,16.706144 
	C622.886108,15.154290 608.813721,13.193428 594.371460,11.032881 
	C595.037781,6.861480 599.158752,4.911769 604.424744,5.225745 
	C613.197754,5.748833 622.011108,5.684922 630.762695,6.408617 
	C632.583191,6.559159 634.641724,8.783828 635.792847,10.567410 
	C636.778320,12.094508 636.621399,14.358854 636.964111,16.706144 
z"/>
<path fill="#FFFFFF" opacity="1.000000" stroke="none" 
	d="
M1143.047119,412.508118 
	C1146.115479,410.864410 1149.278809,409.661316 1152.313232,408.191833 
	C1153.091431,407.815033 1153.462402,406.597260 1154.093506,405.382111 
	C1155.046387,403.926971 1155.925781,402.855164 1156.806152,401.784210 
	C1158.850586,399.297211 1161.239136,399.529022 1163.332397,401.426544 
	C1165.592773,403.475525 1165.600586,406.288147 1163.004395,407.751282 
	C1159.240234,409.872589 1156.953857,412.400421 1156.263916,416.842407 
	C1156.092041,417.949036 1152.168701,419.757660 1151.010620,419.174957 
	C1148.058350,417.689423 1145.693848,415.035797 1143.047119,412.508118 
z"/>
<path fill="#FFFFFF" opacity="1.000000" stroke="none" 
	d="
M350.973602,438.278809 
	C355.495605,434.581726 360.028809,431.282990 364.833374,427.820862 
	C366.093292,427.777527 367.356079,427.554932 368.017334,428.084076 
	C369.766602,429.483765 372.504913,431.159851 372.570007,432.815521 
	C372.682037,435.664764 370.334137,436.678925 367.025909,436.788147 
	C364.613098,436.867798 362.295929,439.431091 359.908722,440.840881 
	C358.191010,441.855316 356.063354,443.906067 354.777527,443.484497 
	C353.161621,442.954803 352.218323,440.373260 350.973602,438.278809 
z"/>
<path fill="#FFFFFF" opacity="1.000000" stroke="none" 
	d="
M1059.973633,446.282349 
	C1064.705322,443.920288 1069.448242,441.960876 1074.572266,439.945923 
	C1075.579834,441.241638 1076.504883,442.536621 1076.772095,443.955505 
	C1077.388428,447.228210 1077.239624,450.744934 1073.319092,451.611816 
	C1069.850586,452.378723 1066.115845,452.342072 1062.555176,452.024872 
	C1061.607422,451.940430 1060.820557,449.547852 1060.062134,448.159241 
	C1059.849487,447.769897 1060.000610,447.181854 1059.973633,446.282349 
z"/>
<path fill="#FFFFFF" opacity="1.000000" stroke="none" 
	d="
M979.973755,478.282104 
	C984.705322,475.919952 989.447998,473.960480 994.571899,471.945557 
	C995.579529,473.241425 996.504456,474.536438 996.771973,475.955353 
	C997.388977,479.228394 997.239380,482.744843 993.319092,483.611847 
	C989.850525,484.378906 986.115784,484.342133 982.555115,484.024902 
	C981.607361,483.940460 980.820801,481.547699 980.062317,480.158997 
	C979.849609,479.769623 980.000610,479.181610 979.973755,478.282104 
z"/>
<path fill="#FFFFFF" opacity="1.000000" stroke="none" 
	d="
M316.136902,463.234070 
	C321.720703,458.668152 327.485382,454.448822 333.568115,450.093384 
	C334.725861,452.011536 336.735199,454.596588 336.105530,455.983978 
	C335.340118,457.670563 332.350647,458.347748 330.029144,459.623260 
	C329.406555,460.970886 328.571442,464.808502 327.413452,464.908539 
	C323.780243,465.222412 320.025482,464.128967 316.136902,463.234070 
z"/>
<path fill="#FFFFFF" opacity="1.000000" stroke="none" 
	d="
M20.993816,388.470154 
	C19.609165,388.895996 18.217756,388.958618 15.999857,389.021545 
	C12.528516,388.518738 9.883665,388.015594 6.703691,387.410614 
	C7.194713,388.686768 7.617053,389.784424 8.039396,390.882050 
	C6.800267,390.845642 5.057700,391.293610 4.443855,390.655609 
	C3.593004,389.771240 3.080630,387.973511 3.316397,386.737213 
	C4.156713,382.330811 10.067459,379.243378 14.359738,381.476105 
	C17.003286,382.851196 18.806530,385.841705 20.993816,388.470154 
z"/>
<path fill="#FFFFFF" opacity="1.000000" stroke="none" 
	d="
M1131.970459,392.666779 
	C1127.073242,391.331573 1122.188232,389.548187 1117.133301,387.442932 
	C1118.662231,382.278809 1120.909302,381.160187 1127.036011,382.021179 
	C1131.344971,382.626740 1132.183105,385.560699 1132.006226,389.236969 
	C1131.958618,390.228943 1131.988525,391.224609 1131.970459,392.666779 
z"/>
<path fill="#FFFFFF" opacity="1.000000" stroke="none" 
	d="
M1091.970459,376.666779 
	C1087.073242,375.331573 1082.188232,373.548187 1077.133301,371.442932 
	C1078.662231,366.278809 1080.909302,365.160187 1087.036011,366.021179 
	C1091.344971,366.626740 1092.183105,369.560699 1092.006226,373.236969 
	C1091.958496,374.228943 1091.988403,375.224609 1091.970459,376.666779 
z"/>
<path fill="#FFFFFF" opacity="1.000000" stroke="none" 
	d="
M1051.970459,360.666779 
	C1047.073242,359.331573 1042.188232,357.548187 1037.133301,355.442932 
	C1038.662231,350.278809 1040.909302,349.160217 1047.036011,350.021179 
	C1051.344971,350.626770 1052.182983,353.560699 1052.006226,357.236969 
	C1051.958618,358.228943 1051.988525,359.224609 1051.970459,360.666779 
z"/>
<path fill="#FFFFFF" opacity="1.000000" stroke="none" 
	d="
M1011.970459,344.666748 
	C1007.073242,343.331604 1002.188293,341.548279 997.133545,339.443115 
	C998.661743,334.278961 1000.909119,333.160034 1007.035767,334.021149 
	C1011.344543,334.626770 1012.182983,337.560455 1012.006104,341.236908 
	C1011.958374,342.228882 1011.988403,343.224579 1011.970459,344.666748 
z"/>
<path fill="#FFFFFF" opacity="1.000000" stroke="none" 
	d="
M86.360077,445.325531 
	C85.819733,446.531494 85.210114,447.212128 83.954651,447.956665 
	C82.220070,449.051941 81.131340,450.083221 80.042603,451.114532 
	C79.427528,451.818542 78.812462,452.522552 78.020187,453.339783 
	C74.937439,453.021210 71.065018,453.116699 72.297966,448.694305 
	C72.745995,447.087280 75.768723,446.198090 77.761581,444.885986 
	C79.179298,443.165497 80.854477,441.132538 82.529663,439.099609 
	C83.783386,440.999817 85.037094,442.899994 86.360077,445.325531 
z"/>
<path fill="#FFFFFF" opacity="1.000000" stroke="none" 
	d="
M1103.047119,428.508118 
	C1106.730713,426.778198 1110.461304,425.389740 1114.572754,423.945801 
	C1115.590454,426.572784 1116.938965,429.321075 1116.698364,431.922302 
	C1116.333618,435.862976 1112.264038,436.929321 1109.268188,434.283356 
	C1107.213257,432.468536 1105.152344,430.660553 1103.047119,428.508118 
z"/>
<path fill="#FFFFFF" opacity="1.000000" stroke="none" 
	d="
M97.766769,421.836121 
	C98.368187,421.304657 98.503098,421.207275 98.768402,421.638977 
	C99.547966,422.637756 100.230522,423.155640 100.913086,423.673492 
	C101.275558,422.837860 101.638039,422.002258 102.000511,421.166626 
	C105.859459,421.166626 109.718399,421.166626 113.024719,421.166626 
	C110.779938,423.876190 108.723076,426.358917 106.205627,428.656769 
	C104.778503,427.239624 103.811951,426.007385 102.399826,424.207123 
	C100.478157,428.408569 98.433922,431.308136 94.000000,429.000000 
	C95.088966,426.740692 96.177925,424.481354 97.766769,421.836121 
z"/>
<path fill="#FFFFFF" opacity="1.000000" stroke="none" 
	d="
M1019.973877,462.285889 
	C1022.374695,460.915253 1024.786743,459.950989 1027.576172,458.938446 
	C1028.026245,459.039459 1028.101929,459.187347 1028.170776,459.338287 
	C1029.223511,461.645355 1030.275146,463.952850 1031.327026,466.260193 
	C1029.021729,467.144135 1026.706055,468.769318 1024.413696,468.737030 
	C1021.034851,468.689453 1019.898499,465.877045 1019.973877,462.285889 
z"/>
<path fill="#FFFFFF" opacity="1.000000" stroke="none" 
	d="
M11.779037,419.094025 
	C14.159379,419.638641 16.210310,420.324707 18.630871,421.088684 
	C19.013489,426.745850 14.357903,427.468414 10.614765,428.671539 
	C9.635729,428.986237 7.324522,427.167145 6.663032,425.818848 
	C6.139706,424.752167 6.833679,422.634583 7.673059,421.484222 
	C8.467344,420.395660 10.154934,419.958893 11.779037,419.094025 
z"/>
<path fill="#FFFFFF" opacity="1.000000" stroke="none" 
	d="
M219.109222,204.047043 
	C218.958878,204.620636 218.808533,205.194229 218.389679,205.901810 
	C213.884750,203.889999 212.293579,198.812729 214.348984,193.481079 
	C215.978165,189.255066 219.038651,188.240768 223.184601,189.843933 
	C224.237381,190.251007 225.430054,190.296310 226.806488,190.804337 
	C226.412811,192.201416 225.771057,193.302017 224.623260,194.695358 
	C222.280716,194.074066 220.444214,193.160019 218.048523,191.967667 
	C216.691574,196.396927 215.777206,200.328873 219.109222,204.047043 
z"/>
<path fill="#FFFFFF" opacity="1.000000" stroke="none" 
	d="
M66.999634,331.448364 
	C64.479095,332.044006 61.957596,332.254272 59.437542,332.480591 
	C59.429409,332.481293 59.405270,332.731995 59.454105,332.834839 
	C59.521412,332.976501 59.651180,333.088531 59.899529,333.550751 
	C58.417477,333.687012 55.863251,334.016479 55.374691,333.163208 
	C54.594734,331.801025 54.512428,328.542938 55.328152,328.046356 
	C57.697571,326.604065 60.729492,325.364502 63.360737,325.602386 
	C64.726799,325.725922 65.795609,329.137238 66.999634,331.448364 
z"/>
<path fill="#FFFFFF" opacity="1.000000" stroke="none" 
	d="
M303.053070,471.523682 
	C305.722565,469.446899 308.445221,467.727142 311.529541,465.980011 
	C313.160339,467.796204 315.678497,469.819122 315.444794,471.446960 
	C314.919342,475.106903 311.325287,475.457977 308.337860,474.862885 
	C306.470093,474.490875 304.841919,472.915924 303.053070,471.523682 
z"/>
<path fill="#FFFFFF" opacity="1.000000" stroke="none" 
	d="
M984.207764,450.507294 
	C982.626282,453.708130 980.881104,456.534027 978.984741,459.679260 
	C977.266113,458.568054 974.214539,456.839203 974.429993,455.767029 
	C974.928650,453.286377 976.643616,450.689514 978.614868,449.030151 
	C979.493042,448.290894 982.178772,449.698883 984.207764,450.507294 
z"/>
<path fill="#FFFFFF" opacity="1.000000" stroke="none" 
	d="
M973.397766,468.999420 
	C972.475830,471.898407 971.118225,474.797760 969.441284,477.866455 
	C967.401123,477.652527 965.368530,477.699432 964.058228,476.749817 
	C963.009888,475.990112 962.082642,473.753723 962.468567,472.651215 
	C962.966797,471.227905 964.659729,469.686340 966.139832,469.271118 
	C968.271484,468.673096 970.674805,469.042999 973.397766,468.999420 
z"/>
<path fill="#FFFFFF" opacity="1.000000" stroke="none" 
	d="
M9.000004,407.000000 
	C8.764199,406.084900 8.745336,405.028839 8.257208,404.277710 
	C5.196236,399.567444 5.468171,398.315735 11.082977,395.212433 
	C12.782159,396.157990 13.860912,397.125519 14.939667,398.093018 
	C14.939668,398.093018 14.983210,398.011902 14.988308,398.347412 
	C15.342113,399.416077 15.690820,400.149261 15.893387,401.200958 
	C14.498166,403.346344 13.249084,405.173157 11.625002,407.000000 
	C10.500000,407.000000 9.750000,407.000000 9.000004,407.000000 
z"/>
<path fill="#FFFFFF" opacity="1.000000" stroke="none" 
	d="
M8.677668,407.162781 
	C9.750000,407.000000 10.500000,407.000000 11.986212,407.060089 
	C13.495799,409.118225 14.269176,411.116302 15.042549,413.114349 
	C14.059471,414.213776 13.076396,415.313202 11.963316,416.705872 
	C9.965361,415.753510 7.240674,414.876282 6.497337,413.147217 
	C5.889809,411.734131 7.646713,409.304474 8.677668,407.162781 
z"/>
<path fill="#FFFFFF" opacity="1.000000" stroke="none" 
	d="
M71.727715,457.992798 
	C67.786057,461.817230 63.458027,465.591736 58.981659,469.682159 
	C58.241444,468.851959 57.045918,467.637756 57.166149,466.571960 
	C57.598877,462.736176 67.560326,456.846863 71.727715,457.992798 
z"/>
<path fill="#FFFFFF" opacity="1.000000" stroke="none" 
	d="
M989.890076,440.788391 
	C989.073669,442.861328 988.100281,444.613861 986.980103,446.682678 
	C984.952698,445.717438 982.830505,444.652893 981.353760,443.008759 
	C980.962036,442.572662 982.491272,439.213776 983.247559,439.172028 
	C985.379028,439.054382 987.567261,439.963562 989.890076,440.788391 
z"/>
<path fill="#4C4C4C" opacity="1.000000" stroke="none" 
	d="
M14.963223,397.719482 
	C13.860912,397.125519 12.782159,396.157990 11.411513,395.076294 
	C10.299046,393.691711 9.478470,392.421295 8.348643,391.016479 
	C7.617053,389.784424 7.194713,388.686768 6.703691,387.410614 
	C9.883665,388.015594 12.528516,388.518738 15.587496,389.094238 
	C19.697584,392.393555 15.863284,394.686279 14.963223,397.719482 
z"/>
<path fill="#4C4C4C" opacity="1.000000" stroke="none" 
	d="
M973.529297,339.368774 
	C970.910339,335.995575 968.519836,332.240570 965.624451,327.692657 
	C968.197815,328.302155 969.701721,328.658325 971.583862,329.067017 
	C973.084717,329.751343 974.207397,330.383179 975.665161,331.090820 
	C975.252747,333.773376 974.505188,336.380157 973.529297,339.368774 
z"/>
<path fill="#FFFFFF" opacity="1.000000" stroke="none" 
	d="
M101.112396,433.044250 
	C98.965958,434.974792 96.819527,436.905334 94.360512,438.972229 
	C92.584045,436.611969 88.716194,434.319122 94.071342,431.156616 
	C96.875259,431.688690 98.993835,432.366486 101.112396,433.044250 
z"/>
<path fill="#FFFFFF" opacity="1.000000" stroke="none" 
	d="
M101.413986,432.921082 
	C98.993835,432.366486 96.875259,431.688690 94.378342,431.005432 
	C94.000000,430.555542 94.000000,430.111115 94.000000,429.333313 
	C98.433922,431.308136 100.478157,428.408569 102.399826,424.207123 
	C103.811951,426.007385 104.778503,427.239624 105.895203,428.791382 
	C104.602104,430.339874 103.158836,431.568909 101.413986,432.921082 
z"/>
<path fill="#FFFFFF" opacity="1.000000" stroke="none" 
	d="
M369.227234,425.115234 
	C371.682434,423.309204 374.473358,421.665894 377.632385,420.094604 
	C377.816833,427.027893 375.144989,428.646454 369.227234,425.115234 
z"/>
<path fill="#FFFFFF" opacity="1.000000" stroke="none" 
	d="
M340.126709,446.222870 
	C342.411041,443.980255 344.866119,442.073029 347.639221,440.026031 
	C348.037872,447.738312 345.890869,449.608459 340.126709,446.222870 
z"/>
<path fill="#FFFFFF" opacity="1.000000" stroke="none" 
	d="
M585.991699,10.455686 
	C583.812500,10.815109 581.624451,10.796423 579.201294,10.450215 
	C580.136047,9.086415 581.292542,7.259580 582.479492,7.239618 
	C583.631042,7.220249 584.813843,9.056337 585.991699,10.455686 
z"/>
<path fill="#FFFFFF" opacity="1.000000" stroke="none" 
	d="
M949.931824,341.476837 
	C952.386597,339.908783 954.887634,338.775482 956.986267,337.824524 
	C959.777954,339.237335 962.457092,340.593201 963.962097,341.354828 
	C965.660217,344.270996 966.667053,347.926178 968.200500,348.162415 
	C970.274841,348.481964 972.753418,346.176910 975.282227,344.643433 
	C976.005920,345.280182 976.505981,346.271423 976.730591,347.749023 
	C975.370850,349.889130 973.020325,352.031128 973.435120,353.106842 
	C974.784790,356.607178 976.754028,360.071869 979.263489,362.845886 
	C980.780273,364.522491 982.007080,365.214264 981.352722,367.939545 
	C980.539490,371.326538 983.961121,373.493622 987.423462,372.265656 
	C988.653687,371.829376 989.884155,371.393890 991.114502,370.958008 
	C991.700317,371.761292 992.286133,372.564606 992.671021,373.817322 
	C989.616394,376.752533 989.686218,379.331909 991.802795,382.365570 
	C993.163269,384.315613 993.953308,386.663727 994.999023,388.833405 
	C984.308899,388.881989 973.618835,388.930573 962.531738,388.569489 
	C966.240112,385.491852 963.736633,381.268616 964.510437,377.821259 
	C966.604065,368.493225 962.274536,364.446442 953.166504,366.997498 
	C952.103699,358.635529 951.040894,350.273560 949.931824,341.476837 
z"/>
<path fill="#FFFFFF" opacity="1.000000" stroke="none" 
	d="
M958.998413,388.833374 
	C927.605286,388.888885 896.212219,388.951080 864.819092,388.996338 
	C853.855164,389.012115 842.891174,388.986084 831.463562,388.906250 
	C831.332947,387.188751 831.666016,385.544128 831.999268,383.532990 
	C865.532593,383.110992 899.065735,383.054718 932.598938,383.000641 
	C939.405823,382.989685 946.212646,382.987122 953.670410,383.221375 
	C955.880310,385.252472 957.439331,387.042938 958.998413,388.833374 
z"/>
<path fill="#FFFFFF" opacity="1.000000" stroke="none" 
	d="
M959.370361,388.905823 
	C957.439331,387.042938 955.880310,385.252472 954.134033,383.179871 
	C953.642029,377.894531 953.337280,372.891296 953.099487,367.442810 
	C962.274536,364.446442 966.604065,368.493225 964.510437,377.821259 
	C963.736633,381.268616 966.240112,385.491852 962.068237,388.496582 
	C961.248596,388.881683 960.495483,388.929962 959.370361,388.905823 
z"/>
<path fill="#FFFFFF" opacity="1.000000" stroke="none" 
	d="
M257.356018,149.959442 
	C256.728149,146.903717 256.122162,143.690216 256.264954,140.510330 
	C256.304749,139.624283 258.459930,138.428436 259.819885,138.099594 
	C261.957458,137.582748 264.243713,137.680801 267.373138,137.452362 
	C265.932953,135.437042 265.143372,134.332138 264.349915,133.221802 
	C264.388794,129.850357 269.554108,128.719940 274.218994,131.467926 
	C268.818237,137.835693 263.239624,143.825027 257.356018,149.959442 
z"/>
<path fill="#FFFFFF" opacity="1.000000" stroke="none" 
	d="
M345.000000,251.000000 
	C343.467682,253.238098 342.403168,256.209534 340.299286,257.551727 
	C336.647156,259.881561 335.154480,262.364563 336.670563,266.495117 
	C337.064056,267.567139 337.374786,268.732178 337.396393,269.860748 
	C337.419037,271.042877 337.048065,272.232574 336.849121,273.418945 
	C335.551147,273.094543 334.101898,273.027618 332.995361,272.377411 
	C331.747833,271.644348 330.808868,270.386200 329.450928,269.196289 
	C333.486664,262.254181 337.807098,255.472244 342.506287,248.784180 
	C343.590027,249.585373 344.295013,250.292694 345.000000,251.000000 
z"/>
<path fill="#FFFFFF" opacity="1.000000" stroke="none" 
	d="
M317.584656,291.136169 
	C321.045593,292.366638 323.786346,293.735809 320.124115,297.663727 
	C319.457031,298.379181 320.565643,300.641632 320.648529,302.200928 
	C320.709229,303.342529 320.432617,304.502106 320.306335,305.653656 
	C316.124084,303.320129 314.494232,307.786072 311.248627,308.937927 
	C313.016693,303.078217 315.148621,297.197693 317.584656,291.136169 
z"/>
<path fill="#FFFFFF" opacity="1.000000" stroke="none" 
	d="
M347.336914,71.786751 
	C345.306091,65.729248 345.444305,65.534935 351.952484,64.667381 
	C354.841187,63.026718 349.983826,56.375839 357.193573,57.382359 
	C360.113129,57.789955 362.424957,57.441231 362.046570,61.693962 
	C362.066986,62.084583 362.042725,62.044270 361.675171,62.033615 
	C360.204803,62.959820 359.101990,63.896679 357.999207,64.833542 
	C354.558472,67.135696 351.117767,69.437843 347.336914,71.786751 
z"/>
<path fill="#FFFFFF" opacity="1.000000" stroke="none" 
	d="
M409.143066,39.250671 
	C406.977753,39.250530 405.107574,39.085510 403.235596,38.944492 
	C400.767029,38.758526 398.825439,37.059566 400.742676,35.305893 
	C402.791290,33.432053 406.260223,32.236183 409.058136,32.326405 
	C411.398926,32.401886 415.459473,31.665449 415.991638,36.454571 
	C413.812836,37.587757 411.625122,38.342113 409.143066,39.250671 
z"/>
<path fill="#FFFFFF" opacity="1.000000" stroke="none" 
	d="
M345.268341,250.782593 
	C344.295013,250.292694 343.590027,249.585373 342.750519,248.512207 
	C345.187958,244.828339 347.759918,241.510330 350.639709,238.044769 
	C355.556183,240.344406 352.095367,244.980164 353.749634,248.228622 
	C352.411011,248.543182 350.608948,249.561188 349.820007,249.041412 
	C347.378235,247.432770 346.308807,248.211823 345.268341,250.782593 
z"/>
<path fill="#FFFFFF" opacity="1.000000" stroke="none" 
	d="
M235.429352,178.888336 
	C231.864136,179.042847 230.438232,178.039200 232.122299,174.537399 
	C232.942978,172.830856 233.008469,170.761139 233.499451,168.464615 
	C236.348053,168.323456 239.337448,168.175323 242.720856,168.034393 
	C240.656158,171.607834 238.197433,175.174042 235.429352,178.888336 
z"/>
<path fill="#FFFFFF" opacity="1.000000" stroke="none" 
	d="
M330.000000,80.000000 
	C330.241028,76.935150 329.555389,73.098045 334.944336,74.601273 
	C335.569092,74.775551 336.660797,73.781921 337.348602,73.131554 
	C339.651550,70.953949 341.990784,70.947075 344.781189,72.912094 
	C340.650757,76.035507 336.198212,79.018692 331.362976,81.748657 
	C330.653503,80.996956 330.326752,80.498474 330.000000,80.000000 
z"/>
<path fill="#FFFFFF" opacity="1.000000" stroke="none" 
	d="
M181.436508,290.824860 
	C176.769699,291.896881 176.696121,288.493988 176.635849,285.938995 
	C176.603973,284.588440 177.992981,282.855408 179.217468,281.918396 
	C180.546051,280.901733 182.428970,280.609406 184.451965,280.000122 
	C183.806046,283.537872 182.778305,287.076660 181.436508,290.824860 
z"/>
<path fill="#FFFFFF" opacity="1.000000" stroke="none" 
	d="
M187.996536,269.675781 
	C186.947357,268.317627 185.822220,266.712555 185.273529,264.930084 
	C184.986771,263.998505 185.840286,262.768738 185.961288,261.650085 
	C186.622986,255.532089 186.599777,255.529587 192.484634,257.952942 
	C191.275681,261.782928 189.717743,265.569092 187.996536,269.675781 
z"/>
<path fill="#FFFFFF" opacity="1.000000" stroke="none" 
	d="
M201.365738,237.949890 
	C200.468933,234.209106 199.772079,230.316025 199.415695,226.392029 
	C199.336777,225.523178 200.277618,224.276978 201.098480,223.716217 
	C201.603668,223.371094 203.027771,223.723709 203.584229,224.246948 
	C204.507690,225.115311 205.064697,226.373398 205.913727,227.785889 
	C204.597061,231.331802 203.142715,234.559113 201.365738,237.949890 
z"/>
<path fill="#FFFFFF" opacity="1.000000" stroke="none" 
	d="
M219.405945,203.876282 
	C215.777206,200.328873 216.691574,196.396927 218.048523,191.967667 
	C220.444214,193.160019 222.280716,194.074066 224.475418,194.993484 
	C223.123306,197.901093 221.412979,200.803314 219.405945,203.876282 
z"/>
<path fill="#FFFFFF" opacity="1.000000" stroke="none" 
	d="
M308.578339,312.153931 
	C310.586761,313.868378 312.285431,315.781006 314.766174,318.574158 
	C311.358459,319.894165 308.641693,320.946503 305.545563,321.999878 
	C306.200317,318.784637 307.234436,315.568390 308.578339,312.153931 
z"/>
<path fill="#FFFFFF" opacity="1.000000" stroke="none" 
	d="
M368.378967,59.059834 
	C368.281189,56.870789 368.165192,54.502216 368.890472,52.427780 
	C369.342773,51.134048 371.065491,50.284492 372.218079,49.235607 
	C372.507324,50.613708 372.843414,51.984344 373.064758,53.373264 
	C373.165405,54.005035 373.039062,54.672977 373.025513,55.723221 
	C371.595642,57.082821 370.155975,58.043720 368.378967,59.059834 
z"/>
<path fill="#FFFFFF" opacity="1.000000" stroke="none" 
	d="
M173.740021,324.037323 
	C172.899551,325.348572 171.800720,326.530640 170.701889,327.712738 
	C170.153183,325.813660 169.604477,323.914551 169.055756,322.015472 
	C170.373596,321.695374 171.691452,321.375244 173.219864,321.446777 
	C173.447510,322.528381 173.464584,323.218262 173.740021,324.037323 
z"/>
<path fill="#FFFFFF" opacity="1.000000" stroke="none" 
	d="
M329.641907,80.035889 
	C330.326752,80.498474 330.653503,80.996956 331.008667,81.807648 
	C328.604126,84.080353 326.171173,86.040833 323.389954,88.057938 
	C323.296143,84.016258 325.317017,81.288895 329.641907,80.035889 
z"/>
<path fill="#FFFFFF" opacity="1.000000" stroke="none" 
	d="
M299.347046,107.967583 
	C299.070435,101.452133 300.467529,100.076767 307.690155,100.029785 
	C305.293243,102.635368 302.472565,105.228477 299.347046,107.967583 
z"/>
<path fill="#FFFFFF" opacity="1.000000" stroke="none" 
	d="
M358.321960,64.803642 
	C359.101990,63.896679 360.204803,62.959820 361.696228,62.039177 
	C360.938141,62.961510 359.791443,63.867626 358.321960,64.803642 
z"/>
<path fill="#FFFFFF" opacity="1.000000" stroke="none" 
	d="
M376.313293,54.810822 
	C376.831146,54.155521 377.663208,53.477268 378.799194,52.925579 
	C378.277924,53.630714 377.452728,54.209290 376.313293,54.810822 
z"/>
<path fill="#EF3F32" opacity="1.000000" stroke="none" 
	d="
M461.039001,299.118073 
	C461.477020,299.071167 461.915070,299.024292 463.017212,298.875916 
	C467.825653,295.197113 471.969940,291.619751 476.114258,288.042419 
	C480.156189,285.466309 484.020447,282.541168 488.272186,280.377380 
	C502.991150,272.886536 517.975159,265.862000 534.648193,264.083893 
	C545.273560,262.950714 555.985046,262.201965 566.665527,262.103394 
	C584.869446,261.935333 602.171753,266.654541 618.510864,274.315247 
	C635.568542,282.312775 651.298340,292.469330 664.091125,306.614197 
	C665.732727,308.429291 667.220215,310.383820 668.768555,312.894958 
	C667.484863,315.078918 666.211609,316.641693 664.020630,319.330933 
	C668.553101,319.995697 671.834167,320.476898 675.115234,320.958130 
	C680.274597,326.646790 684.572083,332.754028 686.304321,340.491241 
	C686.919922,343.240875 688.646362,345.793396 690.110596,348.292389 
	C696.056030,358.439209 698.617493,369.689941 700.962830,381.017853 
	C701.058838,381.481293 700.881287,382.001373 700.779968,383.000000 
	C699.176147,383.000000 697.547058,383.000000 695.917969,383.000000 
	C605.589783,382.999969 515.261536,382.982269 424.933380,383.060181 
	C421.050446,383.063538 418.204895,382.750793 419.087433,377.065460 
	C420.837646,369.870453 422.476318,363.456146 424.115021,357.041840 
	C424.871124,354.624725 425.434326,352.123077 426.444550,349.817322 
	C427.247253,347.985291 428.723541,346.460724 429.677704,344.680145 
	C431.797058,340.725006 433.776459,336.694855 436.269714,332.211060 
	C439.095428,328.817474 441.464355,325.908173 443.833282,322.998871 
	C444.111694,321.237030 444.390076,319.475189 444.529419,318.593323 
	C450.097107,312.620514 455.382782,306.950256 460.397766,300.849518 
	C460.431030,299.985413 460.735016,299.551758 461.039001,299.118073 
z"/>
<path fill="#FFFFFF" opacity="1.000000" stroke="none" 
	d="
M423.740723,357.035858 
	C422.476318,363.456146 420.837646,369.870453 419.016174,376.641510 
	C417.932465,376.215088 416.164215,374.876038 416.257721,374.730164 
	C418.499054,371.232788 415.301147,367.514221 416.317139,364.670441 
	C417.390045,361.667389 420.913513,359.539886 423.740723,357.035858 
z"/>
<path fill="#FFFFFF" opacity="1.000000" stroke="none" 
	d="
M475.662079,288.029846 
	C471.969940,291.619751 467.825653,295.197113 463.340149,298.803833 
	C464.243469,287.355896 466.541016,287.569397 475.662079,288.029846 
z"/>
<path fill="#FFFFFF" opacity="1.000000" stroke="none" 
	d="
M323.386200,284.181030 
	C324.952881,282.639648 326.349854,281.436066 327.746857,280.232513 
	C328.094666,282.515259 328.935333,284.878601 328.580994,287.046570 
	C328.405487,288.120514 325.814484,289.778290 324.694580,289.521606 
	C322.122406,288.932068 321.732910,286.791779 323.386200,284.181030 
z"/>
<path fill="#FFFFFF" opacity="1.000000" stroke="none" 
	d="
M443.448853,322.990082 
	C441.464355,325.908173 439.095428,328.817474 436.419373,331.885376 
	C435.647766,330.025787 434.199860,327.503174 434.922699,326.094055 
	C436.448120,323.120392 439.097687,320.696747 443.448853,322.990082 
z"/>
<path fill="#EF3F32" opacity="1.000000" stroke="none" 
	d="
M675.059448,320.595154 
	C671.834167,320.476898 668.553101,319.995697 664.020630,319.330933 
	C666.211609,316.641693 667.484863,315.078918 668.904053,313.204834 
	C671.034607,315.339752 673.019165,317.785950 675.059448,320.595154 
z"/>
<path fill="#FFFFFF" opacity="1.000000" stroke="none" 
	d="
M460.992615,298.802246 
	C460.735016,299.551758 460.431030,299.985413 460.121796,300.689392 
	C459.671722,300.155182 459.226929,299.350647 458.782166,298.546112 
	C459.503510,298.526215 460.224854,298.506317 460.992615,298.802246 
z"/>
<path fill="#FFFFFF" opacity="1.000000" stroke="none" 
	d="
M991.059570,370.599182 
	C989.884155,371.393890 988.653687,371.829376 987.423462,372.265656 
	C983.961121,373.493622 980.539490,371.326538 981.352722,367.939545 
	C982.007080,365.214264 980.780273,364.522491 979.263489,362.845886 
	C976.754028,360.071869 974.784790,356.607178 973.435120,353.106842 
	C973.020325,352.031128 975.370850,349.889130 976.782593,348.094482 
	C981.072937,354.302399 985.036438,360.650909 988.998230,367.000397 
	C989.670654,368.078094 990.335999,369.160217 991.059570,370.599182 
z"/>
<path fill="#FFFFFF" opacity="1.000000" stroke="none" 
	d="
M995.412903,388.906006 
	C993.953308,386.663727 993.163269,384.315613 991.802795,382.365570 
	C989.686218,379.331909 989.616394,376.752533 992.790405,374.110687 
	C995.730347,378.401947 998.349915,382.849243 1000.725464,387.749207 
	C1000.262329,388.365295 1000.106995,388.575745 1000.015564,388.833344 
	C998.619324,388.881744 997.223022,388.930176 995.412903,388.906006 
z"/>
<path fill="#FFFFFF" opacity="1.000000" stroke="none" 
	d="
M15.355076,412.977570 
	C14.269176,411.116302 13.495799,409.118225 12.361213,407.060089 
	C13.249084,405.173157 14.498166,403.346344 16.203732,401.336334 
	C18.092640,402.806885 19.525066,404.460571 20.957499,406.114288 
	C19.194204,408.356476 17.430902,410.598633 15.355076,412.977570 
z"/>
<path fill="#4C4C4C" opacity="1.000000" stroke="none" 
	d="
M20.969597,405.700623 
	C19.525066,404.460571 18.092640,402.806885 16.349869,401.017792 
	C15.690820,400.149261 15.342113,399.416077 14.948509,398.370544 
	C19.958939,397.920654 21.231672,400.963623 20.969597,405.700623 
z"/>
<path fill="#FFFFFF" opacity="1.000000" stroke="none" 
	d="
M101.733521,421.096619 
	C101.638039,422.002258 101.275558,422.837860 100.913086,423.673492 
	C100.230522,423.155640 99.547966,422.637756 98.899506,421.652710 
	C99.777908,421.132538 100.622215,421.079559 101.733521,421.096619 
z"/>
<path fill="#FFFFFF" opacity="1.000000" stroke="none" 
	d="
M80.348755,450.984375 
	C81.131340,450.083221 82.220070,449.051941 83.711731,448.031555 
	C82.961395,448.979736 81.808144,449.916992 80.348755,450.984375 
z"/>
<path fill="#FFFFFF" opacity="1.000000" stroke="none" 
	d="
M1000.273804,388.868134 
	C1000.106995,388.575745 1000.262329,388.365295 1000.657471,388.110199 
	C1000.732971,388.313293 1000.632507,388.608124 1000.273804,388.868134 
z"/>
<path fill="#FFFFFF" opacity="1.000000" stroke="none" 
	d="
M293.566284,104.412064 
	C294.180481,104.981850 294.804260,105.616676 294.719177,105.733002 
	C293.207916,107.799141 291.667267,109.854874 289.932373,111.726997 
	C289.780579,111.890816 287.395355,110.594948 287.462189,110.256371 
	C288.085052,107.101410 289.080231,104.069321 293.566284,104.412064 
z"/>
<path fill="#FFFFFF" opacity="1.000000" stroke="none" 
	d="
M285.626373,117.635635 
	C283.756165,118.376999 282.092133,118.798393 280.428101,119.219780 
	C280.633606,117.509834 280.304047,115.394684 281.201904,114.209076 
	C282.025452,113.121597 284.173004,113.036781 285.737183,112.510193 
	C285.768982,114.112022 285.800751,115.713837 285.626373,117.635635 
z"/>
</svg>