<svg version="1.1" id="Layer_1" xmlns="http://www.w3.org/2000/svg" xmlns:xlink="http://www.w3.org/1999/xlink" x="0px" y="0px"
	 width="100%" viewBox="0 0 1167 490" enable-background="new 0 0 1167 490" xml:space="preserve">
<path fill="#E1E4E9" opacity="1.000000" stroke="none" 
	d="
M1.000000,383.000000 
	C1.000000,255.690750 1.000000,128.381500 1.000000,1.036123 
	C389.902344,1.036123 778.804688,1.036123 1167.853516,1.036123 
	C1167.853516,164.333252 1167.853516,327.666595 1167.853516,491.000000 
	C1103.231323,491.000000 1038.576904,491.000000 973.471130,490.618286 
	C973.296326,488.853851 973.572876,487.471100 973.608887,487.291107 
	C972.049866,484.645691 971.024719,482.906158 970.322388,481.178894 
	C973.209290,480.132599 975.761536,479.044281 978.339417,478.020569 
	C991.042236,472.975891 1003.757751,467.963348 1016.457581,462.910980 
	C1031.411865,456.961639 1046.353516,450.980469 1061.302979,445.018921 
	C1065.521240,443.336792 1069.752441,441.687225 1073.969238,440.001617 
	C1089.189331,433.917267 1104.437378,427.901367 1119.613525,421.709137 
	C1131.443726,416.882141 1143.182617,411.831665 1154.979248,407.257629 
	C1156.372681,408.975433 1157.580322,410.668915 1159.222290,411.454590 
	C1159.755615,411.709747 1162.324341,409.648895 1162.396118,408.545624 
	C1162.570190,405.866302 1162.770630,401.838440 1161.232056,400.709503 
	C1158.824829,398.943115 1154.872437,397.523224 1151.571289,401.065582 
	C1136.676270,395.313873 1122.159058,389.627625 1107.657349,383.902618 
	C1094.801392,378.827301 1081.950195,373.739349 1069.119263,368.601318 
	C1055.240601,363.043732 1041.395752,357.401550 1027.521484,351.833008 
	C1011.689758,345.478821 995.841797,339.165161 980.000488,332.420532 
	C979.367310,330.371216 978.734619,328.735260 978.101929,327.099335 
	C976.722778,328.106995 975.343567,329.114624 973.613098,330.064148 
	C972.174866,329.615204 971.087952,329.224335 970.057739,328.491333 
	C970.427551,327.567291 970.819763,327.013855 971.041199,326.398926 
	C972.600708,322.068817 970.046204,316.977783 966.544556,317.383972 
	C959.873169,318.157898 956.565186,323.565735 958.608521,330.212524 
	C958.960754,331.358246 959.462219,333.266571 958.932434,333.735474 
	C956.583679,335.814484 956.444153,337.995819 958.890503,339.484528 
	C961.883728,341.306091 962.875183,338.851105 963.519043,336.379700 
	C963.621399,335.986511 964.210754,335.720123 964.403870,335.547821 
	C966.992004,336.402435 969.412476,337.201660 971.989685,338.323181 
	C972.467651,339.748413 972.788879,340.851379 972.873291,342.145142 
	C973.702209,343.557251 974.767883,344.778595 975.903442,346.366058 
	C976.021667,347.475220 976.070007,348.218292 975.732056,349.065308 
	C974.641052,352.736206 973.864258,356.292053 973.311707,359.882385 
	C973.232117,360.399963 974.247925,361.619202 974.729065,361.604523 
	C978.173218,361.499664 981.610229,361.159302 985.352417,361.051392 
	C986.477051,362.793640 987.298706,364.378265 987.699585,365.972595 
	C985.317505,366.675995 983.356262,367.369659 981.395020,368.063324 
	C983.474243,369.883789 985.553528,371.704254 987.530701,373.435364 
	C988.319153,376.865601 989.221375,380.791138 990.266296,385.337433 
	C993.134155,383.880890 994.983887,382.941437 996.976318,382.302612 
	C997.760132,383.697876 998.401245,384.792542 999.032104,386.193542 
	C999.028870,386.704132 999.035767,386.908356 998.854370,387.470032 
	C997.647949,388.217804 996.630554,388.944611 995.611511,388.946930 
	C984.074463,388.973114 972.537231,388.888397 961.013428,388.452698 
	C961.315125,386.245331 961.603271,384.418640 961.891113,382.594299 
	C958.806885,382.730927 956.351440,382.839691 953.935303,382.510376 
	C953.942017,379.725616 953.909485,377.378876 954.332642,375.023193 
	C956.595703,375.005737 958.410950,375.102356 960.208679,374.966400 
	C963.682373,374.703644 966.243042,370.734467 963.966309,368.466980 
	C960.580322,365.094818 956.151245,362.769989 952.104004,359.602264 
	C952.083374,358.136749 952.124817,357.068359 952.545410,355.980530 
	C957.375183,352.850647 957.421936,342.340668 952.838867,338.635468 
	C952.451843,335.847290 952.225891,333.423645 952.356384,330.912781 
	C954.858215,328.405273 954.628845,326.279877 951.567993,325.084198 
	C948.657349,323.947174 948.798401,322.223785 950.375000,320.000000 
	C951.500000,320.000000 952.250000,320.000000 953.219421,320.224304 
	C957.538574,319.335968 956.980957,316.384674 955.944031,313.535339 
	C955.160339,311.382080 954.101562,308.986786 950.666687,311.000000 
	C949.888916,311.000000 949.444458,311.000000 948.797302,310.743988 
	C947.396423,309.991974 946.198181,309.496002 944.993408,308.646362 
	C944.046509,307.195770 943.106201,306.098846 942.086426,304.635437 
	C941.726807,302.845398 941.446594,301.421814 941.562866,299.996521 
	C946.698608,299.107269 949.604553,295.085968 946.518921,291.799713 
	C943.253235,288.321655 939.886963,284.142914 935.102844,281.633606 
	C934.990356,280.527039 934.940491,279.786499 935.226929,278.852966 
	C936.295593,274.763092 937.027954,270.866119 937.760315,266.969177 
	C932.308350,265.491913 930.306030,260.002594 926.086609,256.635529 
	C922.727051,248.846939 919.446716,241.422577 916.549438,233.996964 
	C918.602356,232.734833 920.544678,231.687073 921.790649,230.094513 
	C922.212402,229.555511 920.688049,226.488281 920.368652,226.539627 
	C918.417114,226.853210 916.551453,227.718445 914.670715,228.435593 
	C914.377075,228.547562 914.153137,228.842453 913.626831,228.894913 
	C911.626648,225.157440 909.896484,221.577835 908.549316,217.996948 
	C910.601868,216.741165 912.545837,215.701630 913.789978,214.113831 
	C914.216736,213.569138 912.653076,210.495270 912.406677,210.546310 
	C910.468079,210.947861 908.625977,211.821091 906.760498,212.564987 
	C906.455872,212.686478 906.182495,212.886505 905.589661,212.893219 
	C903.482727,209.502747 901.680847,206.269257 900.231079,202.983917 
	C901.571289,202.113388 902.558960,201.294220 903.547607,200.476135 
	C905.412659,198.932968 907.954895,197.732529 906.247314,194.526459 
	C904.788391,191.787064 902.769836,191.373703 899.699036,191.650742 
	C897.740906,191.827408 895.324768,190.118591 893.603333,188.672607 
	C892.327454,187.600937 891.839111,185.591629 890.990845,183.626144 
	C889.654419,182.168198 888.327209,181.084106 887.007935,179.630402 
	C887.926331,177.743866 889.261658,176.323090 889.632446,174.684113 
	C890.035706,172.901550 890.234070,170.388367 889.281494,169.141159 
	C887.792847,167.192215 885.460632,166.159180 882.844666,168.547089 
	C881.695007,169.596542 879.568237,169.575546 877.587646,169.884857 
	C876.540161,168.857834 875.765015,168.006729 875.044128,167.111908 
	C870.153259,161.041031 865.303040,154.937256 860.381592,148.891357 
	C856.596985,144.242096 852.727539,139.661911 849.183472,134.759674 
	C849.850464,131.549866 850.016296,128.583008 850.663635,125.725197 
	C851.467102,122.177597 849.638245,120.084251 846.806580,119.301666 
	C844.475586,118.657433 843.398071,118.098289 842.649170,115.516220 
	C842.123962,113.705078 839.328308,112.552345 837.546631,111.105576 
	C836.636719,113.049446 835.678528,114.972725 834.837341,116.945877 
	C834.415405,117.935577 834.206604,119.016113 833.602051,119.906395 
	C818.519958,107.641075 803.709045,95.559128 788.985107,83.372025 
	C786.765015,81.534454 784.950928,79.206322 783.099243,76.766426 
	C784.545410,73.724434 783.540588,72.543320 780.733093,71.914673 
	C779.388245,71.613548 777.403137,70.416458 777.213379,69.355774 
	C776.343140,64.493179 773.109375,63.588604 769.123291,64.055107 
	C765.388489,64.492218 762.728394,63.316372 760.998474,59.630623 
	C760.813293,57.426918 761.162720,54.886044 757.625000,57.000000 
	C756.500000,57.000000 755.750000,57.000000 754.840332,56.638939 
	C754.439514,54.510010 754.511597,52.614681 753.860291,51.013596 
	C753.315857,49.675137 752.112854,48.159000 750.847961,47.703793 
	C749.881226,47.355869 747.773926,48.205158 747.239624,49.134552 
	C746.594543,50.256531 746.820862,52.082188 747.137268,53.498947 
	C747.473999,55.007404 748.357239,56.393864 748.661621,57.775352 
	C745.197205,55.846405 742.073120,53.975700 739.112061,51.790146 
	C743.847595,47.816727 741.346619,43.453510 739.187256,40.465355 
	C737.879761,38.656048 733.735474,38.660599 730.813293,38.361065 
	C729.490906,38.225510 728.081360,39.497574 726.642395,39.848141 
	C719.831543,41.507420 718.860413,40.744991 716.684143,33.983051 
	C716.181519,32.421146 714.253601,30.408251 712.841736,30.291378 
	C711.268616,30.161154 709.497864,31.899303 707.892273,32.945648 
	C707.280701,33.344181 706.889038,34.080090 706.321289,34.752026 
	C703.766907,30.222496 697.629333,28.608011 697.802612,22.504431 
	C697.814697,22.080862 696.575623,21.434341 695.822998,21.206011 
	C689.546326,19.301853 682.896851,22.060041 678.596436,28.074837 
	C676.818115,27.629288 675.409424,27.232059 673.998779,26.449825 
	C673.985352,23.473532 674.553833,20.686930 673.768860,18.356167 
	C673.197754,16.660505 670.838806,15.566948 669.276978,14.204945 
	C668.829651,15.645856 668.012390,17.089434 668.022705,18.527042 
	C668.037903,20.631504 668.646179,22.731693 668.650879,24.880886 
	C667.199280,24.563274 666.098633,24.198483 664.936951,23.465412 
	C664.629883,21.812296 664.357300,20.531836 664.144287,19.241545 
	C663.879456,17.636816 664.015686,14.832953 663.360596,14.639459 
	C661.447266,14.074331 659.179749,14.310287 657.144897,14.710142 
	C655.992493,14.936594 655.024414,16.101179 653.973328,16.843224 
	C653.953674,16.338057 653.934021,15.832891 653.914307,15.327725 
	C649.985535,14.884895 646.005188,14.691781 642.149231,13.895938 
	C640.163818,13.486151 637.309570,12.416260 636.744812,10.925882 
	C635.186157,6.812142 632.414551,5.952689 628.607239,5.976336 
	C617.631165,6.044509 606.652527,6.119868 595.679199,5.933955 
	C591.932495,5.870476 589.563049,6.924323 588.669678,10.891324 
	C587.892090,10.910462 587.446350,10.872184 586.989136,10.467640 
	C585.443054,8.428422 583.724854,5.269591 582.416870,5.431163 
	C580.460449,5.672822 578.792480,8.249953 576.536865,9.896647 
	C564.714844,9.917677 553.357666,9.875737 541.985474,9.450772 
	C541.658752,5.617139 538.824890,5.419191 536.836365,6.208925 
	C535.202820,6.857689 534.252563,9.227135 532.585693,10.896240 
	C530.780701,10.917021 529.389526,10.875475 527.938721,10.473379 
	C526.611206,9.091678 525.483093,7.536500 524.046387,7.160427 
	C521.046082,6.375100 517.890625,6.136931 514.784241,5.815584 
	C511.867035,5.513803 508.697205,4.605543 506.060272,5.387128 
	C502.473541,6.450260 499.507812,9.481756 495.195618,8.289085 
	C494.705536,8.153528 493.732910,9.748310 492.989655,10.545971 
	C491.788269,11.835279 490.591522,13.128915 489.445068,14.326774 
	C489.497345,14.232821 489.606598,14.418037 489.269562,14.232764 
	C488.067719,12.710680 487.183136,11.386133 486.343536,10.033658 
	C485.480652,8.643649 484.953461,6.507578 483.744110,6.016669 
	C482.451416,5.491918 479.920135,5.981197 479.052307,6.991918 
	C478.091034,8.111459 478.401031,10.322557 478.157410,12.058312 
	C478.815369,11.735021 479.473328,11.411730 480.131256,11.088438 
	C482.358612,12.875311 484.585999,14.662184 486.478088,16.647251 
	C485.110199,16.933941 484.077545,17.022434 482.882568,16.802847 
	C481.446320,15.699852 480.172455,14.904937 478.328064,13.753986 
	C478.189941,15.855180 478.115662,16.985159 477.804443,18.422325 
	C474.046112,19.430925 470.524750,20.132338 467.059326,20.479059 
	C468.166595,15.478305 466.525940,12.633379 462.489807,13.182203 
	C459.784973,13.550001 457.243835,15.285636 454.685150,16.524309 
	C451.256561,18.184153 448.043976,20.629612 444.440094,21.495932 
	C440.547852,22.431566 436.305786,21.853905 432.230530,22.139160 
	C431.489563,22.191021 430.242920,23.186638 430.209351,23.800180 
	C430.039215,26.909836 428.059937,26.923326 425.732544,27.095509 
	C424.371582,27.196196 423.121918,28.355719 421.737946,28.690323 
	C419.351349,29.267319 416.903870,29.885563 414.473206,29.923235 
	C410.103760,29.990953 405.709961,29.365770 401.366455,29.647863 
	C400.179901,29.724924 398.322784,31.929422 398.197784,33.288586 
	C397.942719,36.061993 396.882416,37.071072 394.251190,37.184734 
	C391.952454,37.284046 389.672119,37.908978 387.376495,37.956486 
	C384.383759,38.018414 382.236633,38.899994 381.455414,42.074306 
	C380.331299,46.641716 377.259644,47.264866 373.036194,46.658569 
	C370.892120,46.350777 367.572662,46.779915 366.540680,48.174995 
	C365.403656,49.712017 366.281311,52.739365 366.281311,55.117481 
	C366.448914,55.085945 366.616547,55.054409 366.784149,55.022869 
	C366.189240,56.960045 365.594299,58.897221 364.705750,60.982483 
	C363.624268,61.455910 362.836456,61.781250 361.847900,61.833092 
	C360.648773,59.733784 359.934387,57.646194 358.565979,56.161339 
	C357.376617,54.870708 355.344025,53.415024 353.875519,53.594971 
	C352.472504,53.766895 351.316498,55.954632 350.051910,57.256287 
	C351.115845,58.172253 352.128265,59.792152 353.253174,59.874420 
	C356.871521,60.139042 357.073914,62.426708 357.028748,65.054230 
	C357.004364,65.019997 357.081360,65.053719 356.683350,65.036942 
	C355.038208,64.672462 353.643372,64.573296 352.568970,63.934902 
	C347.359253,60.839310 345.646942,61.432156 343.106293,66.683769 
	C342.414124,68.114471 340.500885,69.663391 338.978760,69.862259 
	C331.971222,70.777779 331.949738,70.613403 333.756439,77.797829 
	C331.046692,77.797829 328.367218,78.308922 325.981628,77.688942 
	C321.351105,76.485519 319.759796,78.178108 319.966644,82.585983 
	C320.010986,83.530617 319.694885,84.492157 319.550629,85.408958 
	C311.659271,85.489914 311.480469,85.632675 309.007050,94.076210 
	C302.530487,91.439552 298.594330,94.842308 295.177582,99.995026 
	C294.387848,101.186005 292.081665,101.838799 290.442352,101.899200 
	C287.287628,102.015427 285.915161,103.209900 285.922638,106.403954 
	C285.925262,107.524452 284.949402,109.651962 284.573273,109.618164 
	C278.781189,109.097603 277.552856,112.472389 277.638733,117.211090 
	C277.645721,117.595848 277.136261,118.044868 276.782318,118.372894 
	C272.350189,122.480415 271.820709,125.280869 274.223694,131.863281 
	C273.458496,132.441818 272.785797,132.741898 271.696838,133.027039 
	C265.849274,133.442490 269.561768,127.676826 265.494141,125.618645 
	C264.538116,131.595764 263.637482,137.226715 262.874542,141.996796 
	C258.633820,141.996796 255.524246,141.855179 252.432083,142.026932 
	C246.398666,142.362030 244.976089,144.266510 245.808960,150.094437 
	C246.276047,153.362869 246.909424,156.744278 242.110321,157.767471 
	C240.925858,158.020020 239.960938,159.743988 239.086288,160.932266 
	C235.079346,166.375870 230.893845,171.471924 224.562820,174.606384 
	C222.906006,175.426697 221.989899,178.501266 221.511902,180.709061 
	C221.115814,182.538559 221.607254,184.692810 222.165634,186.566040 
	C223.061462,189.571304 222.232147,190.647934 219.078094,191.126694 
	C214.090424,191.883728 212.918076,194.231964 213.440277,199.155167 
	C213.643906,201.074905 213.139771,204.449127 212.049377,204.884338 
	C207.676468,206.629730 207.733612,209.655151 208.881195,213.639587 
	C207.043945,213.779846 205.585281,214.076813 204.158707,213.964905 
	C200.068741,213.643997 197.355957,215.680206 197.357697,219.462372 
	C197.359085,222.494049 197.969177,226.350525 202.912521,226.134613 
	C203.928757,226.090225 205.004578,227.410583 206.019760,228.422791 
	C205.602600,229.494308 205.218613,230.244919 204.438156,230.926270 
	C200.916809,230.576263 197.784332,230.006134 194.668945,230.087738 
	C190.740646,230.190643 188.721512,233.452438 189.634491,237.392776 
	C189.998352,238.963181 190.265488,240.582352 190.331345,242.189377 
	C190.433701,244.686752 190.512039,247.214355 190.224579,249.685394 
	C190.093430,250.812775 189.297928,252.480057 188.406143,252.802399 
	C182.265961,255.021790 179.643494,260.632019 181.994659,266.614197 
	C182.544205,268.012451 182.333496,269.733429 182.360535,271.307861 
	C182.409576,274.163330 182.374435,277.020294 182.374435,280.471100 
	C182.171677,280.513489 181.095627,280.957031 180.034927,280.923004 
	C174.979202,280.760834 172.371445,283.546417 173.161713,288.641174 
	C173.464661,290.594360 174.399261,292.454010 174.660645,294.407837 
	C174.877060,296.025574 174.894760,297.851807 174.353394,299.352142 
	C173.127838,302.748779 170.816330,305.882050 170.215637,309.342743 
	C169.479843,313.581848 170.040283,318.045959 170.040283,322.412781 
	C169.657974,322.201355 169.275665,321.989960 168.893341,321.778534 
	C167.763138,323.817169 166.392975,325.768097 165.602524,327.930939 
	C165.198746,329.035736 165.834244,330.520416 165.535950,331.903412 
	C132.714783,331.926758 100.357681,331.880066 67.987381,331.454285 
	C67.747482,325.599426 62.998608,327.094238 60.095211,326.473877 
	C58.541790,326.141968 55.668629,327.665070 54.831245,329.158539 
	C52.773624,332.828308 54.129158,336.434509 57.124126,340.135773 
	C59.148586,338.686188 61.098961,337.289673 63.357735,336.034851 
	C64.054436,336.715332 64.442734,337.254120 64.459824,337.974426 
	C63.900570,339.505402 63.712536,340.854889 63.524498,342.204407 
	C65.051933,342.119904 66.579376,342.035431 68.397598,342.072296 
	C69.808517,343.426697 70.928642,344.659790 71.898781,346.234955 
	C70.886009,351.220306 71.247459,351.500122 76.397598,350.072266 
	C77.808517,351.426697 78.928650,352.659790 79.898788,354.234955 
	C78.886009,359.220306 79.247459,359.500122 84.397598,358.072266 
	C85.808510,359.426697 86.928642,360.659790 87.898781,362.234955 
	C86.886009,367.220306 87.247459,367.500122 92.397598,366.072266 
	C93.808517,367.426697 94.928650,368.659790 95.898781,370.234955 
	C94.886009,375.220276 95.247459,375.500122 100.397591,374.072266 
	C101.808479,375.426697 102.928581,376.659729 103.899300,378.233795 
	C102.146896,383.647308 106.178261,381.450470 108.400223,382.074432 
	C109.494522,383.112396 110.302574,384.033295 110.846634,385.141663 
	C110.055115,386.497284 109.527588,387.665436 108.536072,388.903625 
	C78.714729,388.926880 49.357384,388.880127 20.051510,388.491852 
	C20.782856,383.358978 19.339788,381.722595 15.185719,382.114532 
	C10.471266,382.559357 5.729750,382.717316 1.000000,383.000000 
z"/>
<path fill="#E1E4E9" opacity="1.000000" stroke="none" 
	d="
M969.999634,481.166626 
	C971.024719,482.906158 972.049866,484.645691 973.608887,487.291107 
	C973.572876,487.471100 973.296326,488.853851 973.009888,490.618286 
	C972.555542,491.000000 972.111084,491.000000 971.333008,490.597839 
	C970.425171,488.883423 969.850952,487.571198 969.276672,486.258972 
	C968.517761,487.839294 967.758850,489.419647 967.000000,491.000000 
	C645.000000,491.000000 323.000000,491.000000 1.000000,491.000000 
	C1.000000,455.241577 1.000000,419.589447 1.000000,383.468658 
	C5.729750,382.717316 10.471266,382.559357 15.185719,382.114532 
	C19.339788,381.722595 20.782856,383.358978 19.607212,388.561432 
	C15.902137,388.972534 12.692837,388.972534 7.937673,388.972534 
	C10.515202,392.671539 12.001376,394.933167 13.621808,397.094147 
	C15.292073,399.321564 18.253344,401.320953 18.515297,403.659241 
	C18.785059,406.067200 16.599464,408.827911 15.263296,411.313354 
	C14.206147,413.279785 12.764206,415.035522 11.579298,416.938477 
	C10.895259,418.037018 10.382185,419.242035 9.302218,421.359985 
	C44.270657,421.359985 78.078720,421.359985 112.894035,421.359985 
	C110.119072,424.500580 108.082230,426.805786 105.835419,428.820129 
	C104.706085,427.578491 103.876114,425.961609 102.847656,425.823578 
	C101.029488,425.579559 97.723030,425.765839 97.437744,426.596100 
	C96.173615,430.275177 95.762360,434.247314 94.907295,438.419495 
	C91.217346,441.833252 87.662598,444.940948 83.787125,447.911316 
	C80.968857,448.013489 78.409157,448.711517 75.988617,448.383301 
	C72.501770,447.910492 71.851311,449.411285 72.253838,452.266510 
	C72.482323,453.887238 72.777588,455.498566 72.907051,457.420654 
	C68.954338,461.695251 65.137344,465.663300 60.588757,470.391907 
	C62.843414,470.809753 63.311134,470.972260 63.778885,470.972351 
	C143.099258,470.989044 222.419647,471.000488 301.739990,470.946808 
	C303.096191,470.945892 304.672546,470.464539 305.775177,469.683563 
	C327.208099,454.503418 348.637695,439.317139 369.929077,423.939819 
	C374.001007,420.998962 378.106689,419.907990 383.108917,419.910583 
	C585.909241,420.015289 788.709656,419.999481 991.510071,420.006897 
	C993.672791,420.006989 995.835510,420.111145 997.909302,420.502075 
	C996.337646,423.010925 994.756470,425.125824 993.414795,427.383087 
	C992.760376,428.484100 992.926697,430.288483 992.074219,431.016998 
	C989.144897,433.520050 989.732422,436.207367 991.019409,439.468292 
	C988.923523,442.793762 986.779602,445.707275 984.822876,448.741577 
	C983.736450,450.426239 982.962585,452.312500 981.894348,453.803925 
	C980.843567,452.473053 979.946289,451.446198 978.839417,450.179443 
	C978.075745,452.719452 977.213806,454.660767 976.962463,456.678192 
	C976.703003,458.761902 977.037048,460.919556 976.961487,463.367920 
	C974.280029,467.946045 971.596375,472.121765 969.309387,476.504486 
	C968.623108,477.819641 965.695374,480.268494 969.999634,481.166626 
z"/>
<path fill="#E1E4E9" opacity="1.000000" stroke="none" 
	d="
M967.399963,491.000000 
	C967.758850,489.419647 968.517761,487.839294 969.276672,486.258972 
	C969.850952,487.571198 970.425171,488.883423 970.999756,490.597839 
	C969.933289,491.000000 968.866638,491.000000 967.399963,491.000000 
z"/>
<path fill="#2FB1E5" opacity="1.000000" stroke="none" 
	d="
M941.166382,299.998199 
	C941.446594,301.421814 941.726807,302.845398 942.025391,304.967804 
	C942.317261,306.450623 942.590698,307.234619 942.918579,308.410278 
	C943.704041,311.535065 944.435181,314.268219 945.107178,317.405487 
	C946.420715,321.874207 947.793335,325.938843 948.982666,330.343994 
	C949.158875,334.134186 949.518433,337.583862 949.928467,341.361145 
	C950.041077,342.125641 950.103333,342.562500 950.220215,343.334778 
	C950.905273,345.111816 951.535645,346.553467 952.000122,348.315186 
	C951.611511,349.757965 951.388672,350.880676 951.105103,352.339630 
	C951.327881,353.467377 951.611450,354.258911 951.954590,355.290161 
	C952.014160,355.529907 952.166199,356.000000 952.166199,356.000000 
	C952.124817,357.068359 952.083374,358.136749 952.045288,360.023193 
	C952.658020,365.571594 953.267517,370.301880 953.877075,375.032166 
	C953.909485,377.378876 953.942017,379.725616 953.474365,382.530151 
	C912.657288,382.991974 872.339966,382.914581 832.023926,383.105103 
	C827.094788,383.128387 825.941895,381.529938 825.837952,376.836578 
	C825.700439,370.626190 824.998901,364.296234 823.505798,358.274017 
	C819.835388,343.470612 816.296021,328.564575 811.330200,314.173859 
	C807.047424,301.762482 801.533691,289.650238 795.341370,278.058990 
	C789.248047,266.652863 782.391418,255.465546 774.463013,245.276855 
	C764.684692,232.710770 753.706116,221.035767 742.736938,209.458145 
	C737.618774,204.056046 731.306946,199.783768 725.528564,195.008484 
	C712.226074,184.015259 697.989807,174.336731 682.425110,166.940964 
	C671.202576,161.608383 659.485535,157.261887 647.817993,152.937210 
	C638.141052,149.350418 628.412537,145.415833 618.352112,143.463943 
	C602.986206,140.482727 587.364929,138.091324 571.757874,137.294342 
	C557.614563,136.572113 543.330200,138.090424 529.135376,139.032303 
	C511.515991,140.201370 494.424835,144.418243 477.699341,149.776001 
	C452.602936,157.815277 429.221466,169.390427 407.563293,184.601410 
	C392.108521,195.455612 378.060730,207.706741 365.016663,221.329010 
	C351.256073,235.699585 339.161133,251.272308 329.343658,268.509521 
	C323.582581,278.624695 318.586121,289.202789 313.716583,299.789215 
	C310.110138,307.629730 307.262573,315.819336 304.152588,323.662598 
	C260.455017,323.662598 216.899536,323.662598 173.165009,323.662598 
	C179.837311,291.182648 190.553528,260.481201 204.834625,230.995529 
	C205.218613,230.244919 205.602600,229.494308 206.315399,228.231628 
	C211.010330,219.687073 215.064209,211.465088 219.803009,203.658890 
	C232.336838,183.011948 245.804962,163.018417 262.247589,145.180847 
	C265.774689,141.354507 268.836823,137.099518 272.113129,133.041992 
	C272.785797,132.741898 273.458496,132.441818 274.479309,131.620941 
	C283.171204,123.279808 291.065613,114.899506 299.958435,107.763451 
	C315.326843,95.431076 331.297791,83.848175 347.057343,72.005867 
	C350.305786,69.564865 353.735321,67.364830 357.081360,65.053726 
	C357.081360,65.053719 357.004364,65.019997 357.366211,65.005920 
	C359.168243,64.030083 360.608429,63.068333 362.048615,62.106586 
	C362.836456,61.781250 363.624268,61.455910 365.047058,60.923496 
	C378.523834,54.457462 391.318268,48.098801 404.218506,41.962574 
	C424.293427,32.413574 445.525909,26.245907 467.003387,20.833750 
	C470.524750,20.132338 474.046112,19.430925 478.186462,18.379173 
	C480.218597,17.722868 481.631775,17.416899 483.044922,17.110928 
	C484.077545,17.022434 485.110199,16.933941 486.817596,16.479790 
	C488.982483,16.043898 490.488434,16.088366 491.960236,15.885328 
	C503.976501,14.227645 515.986450,12.523767 527.998291,10.833931 
	C529.389526,10.875475 530.780701,10.917021 532.997375,10.958494 
	C536.548706,10.583546 539.274658,10.208670 542.000549,9.833796 
	C553.357666,9.875737 564.714844,9.917677 576.942078,9.985765 
	C580.875000,10.285910 583.937805,10.559907 587.000610,10.833904 
	C587.446350,10.872184 587.892090,10.910462 589.105286,10.954277 
	C592.641296,11.305891 595.414612,11.618347 598.177673,12.003793 
	C611.075256,13.802973 624.021423,15.324015 636.848816,17.533241 
	C646.312866,19.163212 655.620544,21.700596 664.997925,23.833685 
	C666.098633,24.198483 667.199280,24.563274 668.958130,25.040291 
	C671.077820,25.713287 672.539307,26.274055 674.000793,26.834827 
	C675.409424,27.232059 676.818115,27.629288 678.822083,28.375591 
	C689.566589,32.288956 699.799377,35.635021 709.838623,39.485882 
	C718.013245,42.621513 725.956116,46.361477 734.299866,49.991920 
	C735.732056,50.711678 736.866089,51.272968 738.235229,51.909424 
	C738.470337,51.984589 738.949036,52.104977 738.949036,52.104984 
	C742.073120,53.975700 745.197205,55.846405 748.968384,57.934925 
	C751.743896,59.380028 753.872253,60.607315 756.313904,61.997635 
	C761.713684,65.121117 766.800293,68.081566 772.034546,71.334610 
	C773.108154,72.123619 774.034058,72.620041 775.120850,73.425316 
	C777.837524,74.857826 780.393311,75.981476 782.949036,77.105118 
	C784.950928,79.206322 786.765015,81.534454 788.985107,83.372025 
	C803.709045,95.559128 818.519958,107.641075 833.752869,120.205505 
	C839.100708,125.452843 843.998291,130.251907 848.895874,135.050995 
	C852.727539,139.661911 856.596985,144.242096 860.381592,148.891357 
	C865.303040,154.937256 870.153259,161.041031 875.044128,167.111908 
	C875.765015,168.006729 876.540161,168.857834 877.646790,170.226318 
	C879.319031,172.517227 880.634644,174.310974 882.067993,176.369598 
	C882.772766,177.123352 883.359802,177.612228 883.980408,178.421204 
	C884.661072,179.531097 885.308289,180.320892 886.077881,181.386444 
	C886.759521,182.452972 887.318665,183.243744 887.940674,184.387970 
	C890.963928,189.174438 893.924316,193.607483 896.938049,198.336365 
	C897.292603,199.104736 897.593872,199.577255 898.025085,200.330002 
	C898.729736,201.418716 899.304382,202.227219 899.879028,203.035736 
	C901.680847,206.269257 903.482727,209.502747 905.644531,213.235657 
	C906.725037,215.156128 907.445679,216.577179 908.166260,217.998230 
	C909.896484,221.577835 911.626648,225.157440 913.680908,229.237244 
	C914.725403,231.157715 915.445862,232.577957 916.166382,233.998199 
	C919.446716,241.422577 922.727051,248.846939 926.164307,256.988373 
	C926.883301,258.832581 927.536865,259.924103 927.992249,261.092804 
	C930.319824,267.066223 932.596252,273.059540 934.890564,279.045929 
	C934.940491,279.786499 934.990356,280.527039 935.176392,281.995422 
	C937.263794,288.481598 939.215088,294.239899 941.166382,299.998199 
z"/>
<path fill="#E1E4E9" opacity="1.000000" stroke="none" 
	d="
M204.438171,230.926270 
	C190.553528,260.481201 179.837311,291.182648 173.165009,323.662598 
	C216.899536,323.662598 260.455017,323.662598 304.152588,323.662598 
	C307.262573,315.819336 310.110138,307.629730 313.716583,299.789215 
	C318.586121,289.202789 323.582581,278.624695 329.343658,268.509521 
	C339.161133,251.272308 351.256073,235.699585 365.016663,221.329010 
	C378.060730,207.706741 392.108521,195.455612 407.563293,184.601410 
	C429.221466,169.390427 452.602936,157.815277 477.699341,149.776001 
	C494.424835,144.418243 511.515991,140.201370 529.135376,139.032303 
	C543.330200,138.090424 557.614563,136.572113 571.757874,137.294342 
	C587.364929,138.091324 602.986206,140.482727 618.352112,143.463943 
	C628.412537,145.415833 638.141052,149.350418 647.817993,152.937210 
	C659.485535,157.261887 671.202576,161.608383 682.425110,166.940964 
	C697.989807,174.336731 712.226074,184.015259 725.528564,195.008484 
	C731.306946,199.783768 737.618774,204.056046 742.736938,209.458145 
	C753.706116,221.035767 764.684692,232.710770 774.463013,245.276855 
	C782.391418,255.465546 789.248047,266.652863 795.341370,278.058990 
	C801.533691,289.650238 807.047424,301.762482 811.330200,314.173859 
	C816.296021,328.564575 819.835388,343.470612 823.505798,358.274017 
	C824.998901,364.296234 825.700439,370.626190 825.837952,376.836578 
	C825.941895,381.529938 827.094788,383.128387 832.023926,383.105103 
	C872.339966,382.914581 912.657288,382.991974 953.435120,382.968201 
	C956.351440,382.839691 958.806885,382.730927 961.891113,382.594299 
	C961.603271,384.418640 961.315125,386.245331 960.549377,388.522736 
	C766.512146,388.982300 572.952454,389.007538 379.392914,388.843536 
	C376.505951,388.841095 373.222961,387.005554 370.805847,385.142090 
	C361.725830,378.141937 352.955414,370.741669 344.018066,363.554688 
	C334.197083,355.657074 324.440063,347.671417 314.412842,340.042694 
	C309.903137,336.611755 306.445221,331.555786 299.409393,331.856354 
	C287.271606,332.374878 275.095581,332.014832 262.935669,331.997101 
	C230.623764,331.950043 198.311890,331.888916 166.000000,331.833374 
	C165.834244,330.520416 165.198746,329.035736 165.602524,327.930939 
	C166.392975,325.768097 167.763138,323.817169 168.893341,321.778534 
	C169.275665,321.989960 169.657974,322.201355 170.040283,322.412781 
	C170.040283,318.045959 169.479843,313.581848 170.215637,309.342743 
	C170.816330,305.882050 173.127838,302.748779 174.353394,299.352142 
	C174.894760,297.851807 174.877060,296.025574 174.660645,294.407837 
	C174.399261,292.454010 173.464661,290.594360 173.161713,288.641174 
	C172.371445,283.546417 174.979202,280.760834 180.034927,280.923004 
	C181.095627,280.957031 182.171677,280.513489 182.374435,280.471100 
	C182.374435,277.020294 182.409576,274.163330 182.360535,271.307861 
	C182.333496,269.733429 182.544205,268.012451 181.994659,266.614197 
	C179.643494,260.632019 182.265961,255.021790 188.406143,252.802399 
	C189.297928,252.480057 190.093430,250.812775 190.224579,249.685394 
	C190.512039,247.214355 190.433701,244.686752 190.331345,242.189377 
	C190.265488,240.582352 189.998352,238.963181 189.634491,237.392776 
	C188.721512,233.452438 190.740646,230.190643 194.668945,230.087738 
	C197.784332,230.006134 200.916809,230.576263 204.438171,230.926270 
M420.026306,373.797455 
	C419.479797,376.572662 418.933258,379.347839 418.246857,382.833466 
	C420.860626,382.833466 422.930084,382.833466 425.927887,382.970947 
	C517.525757,382.970947 609.123596,382.970947 701.059326,382.970947 
	C696.787598,353.978760 684.697815,329.129333 665.411255,308.108124 
	C640.630005,281.098083 609.581177,265.333618 573.023621,262.144226 
	C501.442078,255.899170 436.712891,301.631775 420.026306,373.797455 
z"/>
<path fill="#4C4C4C" opacity="1.000000" stroke="none" 
	d="
M165.535950,331.903412 
	C198.311890,331.888916 230.623764,331.950043 262.935669,331.997101 
	C275.095581,332.014832 287.271606,332.374878 299.409393,331.856354 
	C306.445221,331.555786 309.903137,336.611755 314.412842,340.042694 
	C324.440063,347.671417 334.197083,355.657074 344.018066,363.554688 
	C352.955414,370.741669 361.725830,378.141937 370.805847,385.142090 
	C373.222961,387.005554 376.505951,388.841095 379.392914,388.843536 
	C572.952454,389.007538 766.512146,388.982300 960.535889,388.903412 
	C972.537231,388.888397 984.074463,388.973114 995.611511,388.946930 
	C996.630554,388.944611 997.647949,388.217804 999.101624,387.372803 
	C999.372253,386.574493 999.207275,386.230865 999.042358,385.887207 
	C998.401245,384.792542 997.760132,383.697876 997.038574,381.937622 
	C994.012207,376.169037 991.066284,371.065948 988.120361,365.962891 
	C987.298706,364.378265 986.477051,362.793640 985.320801,360.684937 
	C982.030273,356.427643 979.074280,352.694489 976.118347,348.961334 
	C976.070007,348.218292 976.021667,347.475220 975.967651,346.037720 
	C975.011414,344.213593 974.060791,343.083954 973.110107,341.954346 
	C972.788879,340.851379 972.467651,339.748413 971.954224,337.982025 
	C970.674683,335.550415 969.826660,333.562286 968.447937,332.061859 
	C965.931213,329.322998 968.338806,329.345306 970.001038,328.833466 
	C971.087952,329.224335 972.174866,329.615204 973.782349,330.369476 
	C976.202271,331.433197 978.101624,332.133545 980.000916,332.833893 
	C995.841797,339.165161 1011.689758,345.478821 1027.521484,351.833008 
	C1041.395752,357.401550 1055.240601,363.043732 1069.119263,368.601318 
	C1081.950195,373.739349 1094.801392,378.827301 1107.657349,383.902618 
	C1122.159058,389.627625 1136.676270,395.313873 1151.734497,401.370544 
	C1153.445557,403.302612 1157.196777,403.536163 1154.962158,406.880493 
	C1143.182617,411.831665 1131.443726,416.882141 1119.613525,421.709137 
	C1104.437378,427.901367 1089.189331,433.917267 1073.969238,440.001617 
	C1069.752441,441.687225 1065.521240,443.336792 1061.302979,445.018921 
	C1046.353516,450.980469 1031.411865,456.961639 1016.457581,462.910980 
	C1003.757751,467.963348 991.042236,472.975891 978.339417,478.020569 
	C975.761536,479.044281 973.209290,480.132599 970.322449,481.178864 
	C965.695374,480.268494 968.623108,477.819641 969.309387,476.504486 
	C971.596375,472.121765 974.280029,467.946045 977.267456,463.203064 
	C979.164734,459.846069 980.606323,456.976990 982.047852,454.107910 
	C982.962585,452.312500 983.736450,450.426239 984.822876,448.741577 
	C986.779602,445.707275 988.923523,442.793762 991.329956,439.301575 
	C994.434875,434.238831 997.385193,429.802917 999.866333,425.118500 
	C1000.783386,423.387177 1003.600830,419.891174 997.998230,420.166687 
	C995.835510,420.111145 993.672791,420.006989 991.510071,420.006897 
	C788.709656,419.999481 585.909241,420.015289 383.108917,419.910583 
	C378.106689,419.907990 374.001007,420.998962 369.929077,423.939819 
	C348.637695,439.317139 327.208099,454.503418 305.775177,469.683563 
	C304.672546,470.464539 303.096191,470.945892 301.739990,470.946808 
	C222.419647,471.000488 143.099258,470.989044 63.778885,470.972351 
	C63.311134,470.972260 62.843414,470.809753 60.588757,470.391907 
	C65.137344,465.663300 68.954338,461.695251 73.221603,457.277466 
	C77.150528,453.901367 80.629181,450.974976 84.107849,448.048645 
	C87.662598,444.940948 91.217346,441.833252 95.221573,438.276489 
	C99.129166,434.921936 102.587273,432.016479 106.045380,429.110992 
	C108.082230,426.805786 110.119072,424.500580 112.894035,421.359985 
	C78.078720,421.359985 44.270657,421.359985 9.302218,421.359985 
	C10.382185,419.242035 10.895259,418.037018 11.579298,416.938477 
	C12.764206,415.035522 14.206147,413.279785 15.263296,411.313354 
	C16.599464,408.827911 18.785059,406.067200 18.515297,403.659241 
	C18.253344,401.320953 15.292073,399.321564 13.621808,397.094147 
	C12.001376,394.933167 10.515202,392.671539 7.937673,388.972534 
	C12.692837,388.972534 15.902137,388.972534 19.555735,388.902954 
	C49.357384,388.880127 78.714729,388.926880 108.925217,388.972595 
	C111.384727,388.971619 112.991119,388.971619 115.651634,388.971619 
	C113.467728,387.039520 112.289177,385.996857 111.110626,384.954193 
	C110.302574,384.033295 109.494522,383.112396 108.269287,381.777557 
	C106.584290,380.206665 105.316490,379.049713 104.048691,377.892761 
	C102.928581,376.659729 101.808479,375.426697 100.267685,373.775665 
	C98.580933,372.202728 97.314857,371.047791 96.048782,369.892853 
	C94.928650,368.659790 93.808517,367.426697 92.267693,365.775665 
	C90.580925,364.202759 89.314850,363.047791 88.048775,361.892853 
	C86.928642,360.659790 85.808510,359.426697 84.267685,357.775665 
	C82.580917,356.202759 81.314842,355.047821 80.048775,353.892853 
	C78.928650,352.659790 77.808517,351.426697 76.267700,349.775665 
	C74.580925,348.202759 73.314850,347.047791 72.048775,345.892853 
	C70.928642,344.659790 69.808517,343.426697 68.279984,341.790527 
	C66.858063,340.189270 65.844551,338.991089 64.831039,337.792908 
	C64.442734,337.254120 64.054436,336.715332 63.315029,335.592896 
	C62.008492,329.772827 66.422707,333.052216 68.000572,331.833374 
	C100.357681,331.880066 132.714783,331.926758 165.535950,331.903412 
z"/>
<path fill="#E1E4E9" opacity="1.000000" stroke="none" 
	d="
M271.696838,133.027039 
	C268.836823,137.099518 265.774689,141.354507 262.247589,145.180847 
	C245.804962,163.018417 232.336838,183.011948 219.803009,203.658890 
	C215.064209,211.465088 211.010330,219.687073 206.348572,227.910706 
	C205.004578,227.410583 203.928757,226.090225 202.912521,226.134613 
	C197.969177,226.350525 197.359085,222.494049 197.357697,219.462372 
	C197.355957,215.680206 200.068741,213.643997 204.158707,213.964905 
	C205.585281,214.076813 207.043945,213.779846 208.881195,213.639587 
	C207.733612,209.655151 207.676468,206.629730 212.049377,204.884338 
	C213.139771,204.449127 213.643906,201.074905 213.440277,199.155167 
	C212.918076,194.231964 214.090424,191.883728 219.078094,191.126694 
	C222.232147,190.647934 223.061462,189.571304 222.165634,186.566040 
	C221.607254,184.692810 221.115814,182.538559 221.511902,180.709061 
	C221.989899,178.501266 222.906006,175.426697 224.562820,174.606384 
	C230.893845,171.471924 235.079346,166.375870 239.086288,160.932266 
	C239.960938,159.743988 240.925858,158.020020 242.110321,157.767471 
	C246.909424,156.744278 246.276047,153.362869 245.808960,150.094437 
	C244.976089,144.266510 246.398666,142.362030 252.432083,142.026932 
	C255.524246,141.855179 258.633820,141.996796 262.874542,141.996796 
	C263.637482,137.226715 264.538116,131.595764 265.494141,125.618645 
	C269.561768,127.676826 265.849274,133.442490 271.696838,133.027039 
z"/>
<path fill="#E1E4E9" opacity="1.000000" stroke="none" 
	d="
M467.059326,20.479057 
	C445.525909,26.245907 424.293427,32.413574 404.218506,41.962574 
	C391.318268,48.098801 378.523834,54.457462 365.340668,60.775414 
	C365.594299,58.897221 366.189240,56.960045 366.784149,55.022869 
	C366.616547,55.054409 366.448914,55.085945 366.281311,55.117481 
	C366.281311,52.739365 365.403656,49.712017 366.540680,48.174995 
	C367.572662,46.779915 370.892120,46.350777 373.036194,46.658569 
	C377.259644,47.264866 380.331299,46.641716 381.455414,42.074306 
	C382.236633,38.899994 384.383759,38.018414 387.376495,37.956486 
	C389.672119,37.908978 391.952454,37.284046 394.251190,37.184734 
	C396.882416,37.071072 397.942719,36.061993 398.197784,33.288586 
	C398.322784,31.929422 400.179901,29.724924 401.366455,29.647863 
	C405.709961,29.365770 410.103760,29.990953 414.473206,29.923235 
	C416.903870,29.885563 419.351349,29.267319 421.737946,28.690323 
	C423.121918,28.355719 424.371582,27.196196 425.732544,27.095509 
	C428.059937,26.923326 430.039215,26.909836 430.209351,23.800180 
	C430.242920,23.186638 431.489563,22.191021 432.230530,22.139160 
	C436.305786,21.853905 440.547852,22.431566 444.440094,21.495932 
	C448.043976,20.629612 451.256561,18.184153 454.685150,16.524309 
	C457.243835,15.285636 459.784973,13.550001 462.489807,13.182203 
	C466.525940,12.633379 468.166595,15.478305 467.059326,20.479057 
z"/>
<path fill="#E1E4E9" opacity="1.000000" stroke="none" 
	d="
M356.683350,65.036957 
	C353.735321,67.364830 350.305786,69.564865 347.057343,72.005867 
	C331.297791,83.848175 315.326843,95.431076 299.958435,107.763451 
	C291.065613,114.899506 283.171204,123.279808 274.571838,131.342484 
	C271.820709,125.280869 272.350189,122.480415 276.782318,118.372894 
	C277.136261,118.044868 277.645721,117.595848 277.638733,117.211090 
	C277.552856,112.472389 278.781189,109.097603 284.573273,109.618164 
	C284.949402,109.651962 285.925262,107.524452 285.922638,106.403954 
	C285.915161,103.209900 287.287628,102.015427 290.442352,101.899200 
	C292.081665,101.838799 294.387848,101.186005 295.177582,99.995026 
	C298.594330,94.842308 302.530487,91.439552 309.007050,94.076210 
	C311.480469,85.632675 311.659271,85.489914 319.550629,85.408958 
	C319.694885,84.492157 320.010986,83.530617 319.966644,82.585983 
	C319.759796,78.178108 321.351105,76.485519 325.981628,77.688942 
	C328.367218,78.308922 331.046692,77.797829 333.756439,77.797829 
	C331.949738,70.613403 331.971222,70.777779 338.978760,69.862259 
	C340.500885,69.663391 342.414124,68.114471 343.106293,66.683769 
	C345.646942,61.432156 347.359253,60.839310 352.568970,63.934902 
	C353.643372,64.573296 355.038208,64.672462 356.683350,65.036957 
z"/>
<path fill="#E1E4E9" opacity="1.000000" stroke="none" 
	d="
M664.936951,23.465405 
	C655.620544,21.700596 646.312866,19.163212 636.848816,17.533241 
	C624.021423,15.324015 611.075256,13.802973 598.177673,12.003793 
	C595.414612,11.618347 592.641296,11.305891 589.437134,10.896859 
	C589.563049,6.924323 591.932495,5.870476 595.679199,5.933955 
	C606.652527,6.119868 617.631165,6.044509 628.607239,5.976336 
	C632.414551,5.952689 635.186157,6.812142 636.744812,10.925882 
	C637.309570,12.416260 640.163818,13.486151 642.149231,13.895938 
	C646.005188,14.691781 649.985535,14.884895 653.914307,15.327725 
	C653.934021,15.832891 653.953674,16.338057 653.973328,16.843224 
	C655.024414,16.101179 655.992493,14.936594 657.144897,14.710142 
	C659.179749,14.310287 661.447266,14.074331 663.360596,14.639459 
	C664.015686,14.832953 663.879456,17.636816 664.144287,19.241545 
	C664.357300,20.531836 664.629883,21.812296 664.936951,23.465405 
z"/>
<path fill="#E1E4E9" opacity="1.000000" stroke="none" 
	d="
M739.112061,51.790138 
	C738.949036,52.104977 738.470337,51.984589 738.224243,51.542526 
	C737.803589,48.397255 738.137451,45.508659 737.246826,43.066620 
	C736.779724,41.785778 734.166504,41.287670 732.522400,40.436089 
	C732.375366,42.130444 731.927002,43.869541 732.169983,45.506012 
	C732.392700,47.006073 733.361572,48.395367 734.001709,49.833454 
	C725.956116,46.361477 718.013245,42.621513 709.838623,39.485882 
	C699.799377,35.635021 689.566589,32.288956 679.191772,28.423912 
	C682.896851,22.060041 689.546326,19.301853 695.822998,21.206011 
	C696.575623,21.434341 697.814697,22.080862 697.802612,22.504431 
	C697.629333,28.608011 703.766907,30.222496 706.321289,34.752026 
	C706.889038,34.080090 707.280701,33.344181 707.892273,32.945648 
	C709.497864,31.899303 711.268616,30.161154 712.841736,30.291378 
	C714.253601,30.408251 716.181519,32.421146 716.684143,33.983051 
	C718.860413,40.744991 719.831543,41.507420 726.642395,39.848141 
	C728.081360,39.497574 729.490906,38.225510 730.813293,38.361065 
	C733.735474,38.660599 737.879761,38.656048 739.187256,40.465355 
	C741.346619,43.453510 743.847595,47.816727 739.112061,51.790138 
z"/>
<path fill="#E1E4E9" opacity="1.000000" stroke="none" 
	d="
M527.938721,10.473379 
	C515.986450,12.523767 503.976501,14.227645 491.960236,15.885328 
	C490.488434,16.088366 488.982483,16.043898 487.152863,16.281593 
	C484.585999,14.662184 482.358612,12.875311 480.131256,11.088438 
	C479.473328,11.411730 478.815369,11.735021 478.157410,12.058312 
	C478.401031,10.322557 478.091034,8.111459 479.052307,6.991918 
	C479.920135,5.981197 482.451416,5.491918 483.744110,6.016669 
	C484.953461,6.507578 485.480652,8.643649 486.343536,10.033658 
	C487.183136,11.386133 488.067719,12.710680 489.249573,14.265030 
	C489.566589,14.482570 489.392822,14.420722 489.392822,14.420725 
	C490.591522,13.128915 491.788269,11.835279 492.989655,10.545971 
	C493.732910,9.748310 494.705536,8.153528 495.195618,8.289085 
	C499.507812,9.481756 502.473541,6.450260 506.060272,5.387128 
	C508.697205,4.605543 511.867035,5.513803 514.784241,5.815584 
	C517.890625,6.136931 521.046082,6.375100 524.046387,7.160427 
	C525.483093,7.536500 526.611206,9.091678 527.938721,10.473379 
z"/>
<path fill="#E1E4E9" opacity="1.000000" stroke="none" 
	d="
M970.057739,328.491333 
	C968.338806,329.345306 965.931213,329.322998 968.447937,332.061859 
	C969.826660,333.562286 970.674683,335.550415 971.797485,337.659729 
	C969.412476,337.201660 966.992004,336.402435 964.403870,335.547821 
	C964.210754,335.720123 963.621399,335.986511 963.519043,336.379700 
	C962.875183,338.851105 961.883728,341.306091 958.890503,339.484528 
	C956.444153,337.995819 956.583679,335.814484 958.932434,333.735474 
	C959.462219,333.266571 958.960754,331.358246 958.608521,330.212524 
	C956.565186,323.565735 959.873169,318.157898 966.544556,317.383972 
	C970.046204,316.977783 972.600708,322.068817 971.041199,326.398926 
	C970.819763,327.013855 970.427551,327.567291 970.057739,328.491333 
z"/>
<path fill="#E1E4E9" opacity="1.000000" stroke="none" 
	d="
M849.183472,134.759644 
	C843.998291,130.251907 839.100708,125.452843 834.052246,120.354675 
	C834.206604,119.016113 834.415405,117.935577 834.837341,116.945877 
	C835.678528,114.972725 836.636719,113.049446 837.546631,111.105576 
	C839.328308,112.552345 842.123962,113.705078 842.649170,115.516220 
	C843.398071,118.098289 844.475586,118.657433 846.806580,119.301666 
	C849.638245,120.084251 851.467102,122.177597 850.663635,125.725197 
	C850.016296,128.583008 849.850464,131.549866 849.183472,134.759644 
z"/>
<path fill="#E1E4E9" opacity="1.000000" stroke="none" 
	d="
M783.099243,76.766434 
	C780.393311,75.981476 777.837524,74.857826 775.066833,73.071388 
	C773.863525,71.953072 772.875183,71.497543 771.886841,71.042023 
	C766.800293,68.081566 761.713684,65.121117 756.304443,61.642624 
	C755.654541,59.749718 755.327271,58.374859 755.000000,57.000000 
	C755.750000,57.000000 756.500000,57.000000 757.497559,57.304810 
	C756.757019,61.229187 759.683533,59.518463 761.000000,60.000000 
	C762.728394,63.316372 765.388489,64.492218 769.123291,64.055107 
	C773.109375,63.588604 776.343140,64.493179 777.213379,69.355774 
	C777.403137,70.416458 779.388245,71.613548 780.733093,71.914673 
	C783.540588,72.543320 784.545410,73.724434 783.099243,76.766434 
z"/>
<path fill="#E1E4E9" opacity="1.000000" stroke="none" 
	d="
M900.231140,202.983902 
	C899.304382,202.227219 898.729736,201.418716 898.247437,200.148224 
	C897.854736,199.137680 897.369751,198.589127 896.884766,198.040558 
	C893.924316,193.607483 890.963928,189.174438 888.331055,184.378372 
	C889.439148,184.010223 890.219543,184.005112 891.000000,184.000000 
	C891.839111,185.591629 892.327454,187.600937 893.603333,188.672607 
	C895.324768,190.118591 897.740906,191.827408 899.699036,191.650742 
	C902.769836,191.373703 904.788391,191.787064 906.247314,194.526459 
	C907.954895,197.732529 905.412659,198.932968 903.547607,200.476135 
	C902.558960,201.294220 901.571289,202.113388 900.231140,202.983902 
z"/>
<path fill="#E1E4E9" opacity="1.000000" stroke="none" 
	d="
M954.332703,375.023193 
	C953.267517,370.301880 952.658020,365.571594 952.107300,360.420349 
	C956.151245,362.769989 960.580322,365.094818 963.966309,368.466980 
	C966.243042,370.734467 963.682373,374.703644 960.208679,374.966400 
	C958.410950,375.102356 956.595703,375.005737 954.332703,375.023193 
z"/>
<path fill="#E1E4E9" opacity="1.000000" stroke="none" 
	d="
M67.987381,331.454285 
	C66.422707,333.052216 62.008492,329.772827 63.006630,335.451172 
	C61.098961,337.289673 59.148586,338.686188 57.124126,340.135773 
	C54.129158,336.434509 52.773624,332.828308 54.831245,329.158539 
	C55.668629,327.665070 58.541790,326.141968 60.095211,326.473877 
	C62.998608,327.094238 67.747482,325.599426 67.987381,331.454285 
z"/>
<path fill="#E1E4E9" opacity="1.000000" stroke="none" 
	d="
M987.699585,365.972595 
	C991.066284,371.065948 994.012207,376.169037 996.895874,381.637054 
	C994.983887,382.941437 993.134155,383.880890 990.266296,385.337433 
	C989.221375,380.791138 988.319153,376.865601 987.530701,373.435364 
	C985.553528,371.704254 983.474243,369.883789 981.395020,368.063324 
	C983.356262,367.369659 985.317505,366.675995 987.699585,365.972595 
z"/>
<path fill="#E1E4E9" opacity="1.000000" stroke="none" 
	d="
M941.562866,299.996521 
	C939.215088,294.239899 937.263794,288.481598 935.238953,282.361420 
	C939.886963,284.142914 943.253235,288.321655 946.518921,291.799713 
	C949.604553,295.085968 946.698608,299.107269 941.562866,299.996521 
z"/>
<path fill="#E1E4E9" opacity="1.000000" stroke="none" 
	d="
M935.226929,278.852966 
	C932.596252,273.059540 930.319824,267.066223 927.992249,261.092804 
	C927.536865,259.924103 926.883301,258.832581 926.243408,257.352600 
	C930.306030,260.002594 932.308350,265.491913 937.760315,266.969177 
	C937.027954,270.866119 936.295593,274.763092 935.226929,278.852966 
z"/>
<path fill="#E1E4E9" opacity="1.000000" stroke="none" 
	d="
M975.732056,349.065308 
	C979.074280,352.694489 982.030273,356.427643 985.017822,360.527283 
	C981.610229,361.159302 978.173218,361.499664 974.729065,361.604523 
	C974.247925,361.619202 973.232117,360.399963 973.311707,359.882385 
	C973.864258,356.292053 974.641052,352.736206 975.732056,349.065308 
z"/>
<path fill="#E1E4E9" opacity="1.000000" stroke="none" 
	d="
M1154.979248,407.257629 
	C1157.196777,403.536163 1153.445557,403.302612 1152.119141,401.419128 
	C1154.872437,397.523224 1158.824829,398.943115 1161.232056,400.709503 
	C1162.770630,401.838440 1162.570190,405.866302 1162.396118,408.545624 
	C1162.324341,409.648895 1159.755615,411.709747 1159.222290,411.454590 
	C1157.580322,410.668915 1156.372681,408.975433 1154.979248,407.257629 
z"/>
<path fill="#E1E4E9" opacity="1.000000" stroke="none" 
	d="
M881.950317,176.104736 
	C880.634644,174.310974 879.319031,172.517227 877.944214,170.382019 
	C879.568237,169.575546 881.695007,169.596542 882.844666,168.547089 
	C885.460632,166.159180 887.792847,167.192215 889.281494,169.141159 
	C890.234070,170.388367 890.035706,172.901550 889.632446,174.684113 
	C889.261658,176.323090 887.926331,177.743866 886.786499,179.766693 
	C886.356506,180.551956 886.155945,180.831314 885.955444,181.110687 
	C885.308289,180.320892 884.661072,179.531097 884.106873,178.126877 
	C884.158936,176.774750 884.118042,176.037033 884.077148,175.299347 
	C883.368225,175.567810 882.659241,175.836273 881.950317,176.104736 
z"/>
<path fill="#E1E4E9" opacity="1.000000" stroke="none" 
	d="
M754.840332,56.638939 
	C755.327271,58.374859 755.654541,59.749718 755.991211,61.479591 
	C753.872253,60.607315 751.743896,59.380028 749.308716,57.993164 
	C748.357239,56.393864 747.473999,55.007404 747.137268,53.498947 
	C746.820862,52.082188 746.594543,50.256531 747.239624,49.134552 
	C747.773926,48.205158 749.881226,47.355869 750.847961,47.703793 
	C752.112854,48.159000 753.315857,49.675137 753.860291,51.013596 
	C754.511597,52.614681 754.439514,54.510010 754.840332,56.638939 
z"/>
<path fill="#E1E4E9" opacity="1.000000" stroke="none" 
	d="
M945.166260,317.001373 
	C944.435181,314.268219 943.704041,311.535065 943.196289,308.508850 
	C943.946411,308.477234 944.473206,308.738617 945.045654,309.338196 
	C946.394226,310.117584 947.697144,310.558777 949.000000,311.000000 
	C949.444458,311.000000 949.888916,311.000000 950.874756,311.261292 
	C955.241577,313.732269 955.209412,316.662750 953.000000,320.000000 
	C952.250000,320.000000 951.500000,320.000000 950.177612,319.746765 
	C948.125610,318.662811 946.645935,317.832092 945.166260,317.001373 
z"/>
<path fill="#E1E4E9" opacity="1.000000" stroke="none" 
	d="
M361.847900,61.833088 
	C360.608429,63.068333 359.168243,64.030083 357.390564,65.040154 
	C357.073914,62.426708 356.871521,60.139042 353.253174,59.874420 
	C352.128265,59.792152 351.115845,58.172253 350.051910,57.256287 
	C351.316498,55.954632 352.472504,53.766895 353.875519,53.594971 
	C355.344025,53.415024 357.376617,54.870708 358.565979,56.161339 
	C359.934387,57.646194 360.648773,59.733784 361.847900,61.833088 
z"/>
<path fill="#E1E4E9" opacity="1.000000" stroke="none" 
	d="
M673.998779,26.449821 
	C672.539307,26.274055 671.077820,25.713287 669.309082,24.993111 
	C668.646179,22.731693 668.037903,20.631504 668.022705,18.527042 
	C668.012390,17.089434 668.829651,15.645856 669.276978,14.204945 
	C670.838806,15.566948 673.197754,16.660505 673.768860,18.356167 
	C674.553833,20.686930 673.985352,23.473532 673.998779,26.449821 
z"/>
<path fill="#E1E4E9" opacity="1.000000" stroke="none" 
	d="
M945.107178,317.405487 
	C946.645935,317.832092 948.125610,318.662811 949.802612,319.746765 
	C948.798401,322.223785 948.657349,323.947174 951.567993,325.084198 
	C954.628845,326.279877 954.858215,328.405273 952.078735,330.790222 
	C950.685059,330.504425 949.925537,330.253937 949.165955,330.003448 
	C947.793335,325.938843 946.420715,321.874207 945.107178,317.405487 
z"/>
<path fill="#E1E4E9" opacity="1.000000" stroke="none" 
	d="
M950.165527,342.999390 
	C950.103333,342.562500 950.041077,342.125641 950.257202,341.322144 
	C951.356995,340.303680 952.178528,339.651825 953.000000,339.000000 
	C957.421936,342.340668 957.375183,352.850647 952.545410,355.980530 
	C952.166199,356.000000 952.014160,355.529907 952.201050,355.093567 
	C951.980530,353.772614 951.573181,352.888031 951.165894,352.003418 
	C951.388672,350.880676 951.611511,349.757965 952.329651,348.223694 
	C955.426453,344.280426 953.316162,343.352417 950.165527,342.999390 
z"/>
<path fill="#E1E4E9" opacity="1.000000" stroke="none" 
	d="
M916.549377,233.996979 
	C915.445862,232.577957 914.725403,231.157715 913.950928,229.395111 
	C914.153137,228.842453 914.377075,228.547562 914.670715,228.435593 
	C916.551453,227.718445 918.417114,226.853210 920.368652,226.539627 
	C920.688049,226.488281 922.212402,229.555511 921.790649,230.094513 
	C920.544678,231.687073 918.602356,232.734833 916.549377,233.996979 
z"/>
<path fill="#E1E4E9" opacity="1.000000" stroke="none" 
	d="
M908.549316,217.996948 
	C907.445679,216.577179 906.725037,215.156128 905.949585,213.392639 
	C906.182495,212.886505 906.455872,212.686478 906.760498,212.564987 
	C908.625977,211.821091 910.468079,210.947861 912.406677,210.546310 
	C912.653076,210.495270 914.216736,213.569138 913.789978,214.113831 
	C912.545837,215.701630 910.601868,216.741165 908.549316,217.996948 
z"/>
<path fill="#E1E4E9" opacity="1.000000" stroke="none" 
	d="
M586.989136,10.467640 
	C583.937805,10.559907 580.875000,10.285910 577.406982,9.922795 
	C578.792480,8.249953 580.460449,5.672822 582.416870,5.431163 
	C583.724854,5.269591 585.443054,8.428422 586.989136,10.467640 
z"/>
<path fill="#E1E4E9" opacity="1.000000" stroke="none" 
	d="
M541.985474,9.450771 
	C539.274658,10.208670 536.548706,10.583546 533.411133,10.896168 
	C534.252563,9.227135 535.202820,6.857689 536.836365,6.208925 
	C538.824890,5.419191 541.658752,5.617139 541.985474,9.450771 
z"/>
<path fill="#E1E4E9" opacity="1.000000" stroke="none" 
	d="
M952.838867,338.635468 
	C952.178528,339.651825 951.356995,340.303680 950.206787,340.994537 
	C949.518433,337.583862 949.158875,334.134186 948.982666,330.343994 
	C949.925537,330.253937 950.685059,330.504425 951.722290,330.877441 
	C952.225891,333.423645 952.451843,335.847290 952.838867,338.635468 
z"/>
<path fill="#E1E4E9" opacity="1.000000" stroke="none" 
	d="
M953.219421,320.224304 
	C955.209412,316.662750 955.241577,313.732269 951.208008,311.261292 
	C954.101562,308.986786 955.160339,311.382080 955.944031,313.535339 
	C956.980957,316.384674 957.538574,319.335968 953.219421,320.224304 
z"/>
<path fill="#E1E4E9" opacity="1.000000" stroke="none" 
	d="
M980.000488,332.420532 
	C978.101624,332.133545 976.202271,331.433197 974.133667,330.427551 
	C975.343567,329.114624 976.722778,328.106995 978.101929,327.099335 
	C978.734619,328.735260 979.367310,330.371216 980.000488,332.420532 
z"/>
<path fill="#E1E4E9" opacity="1.000000" stroke="none" 
	d="
M64.459824,337.974426 
	C65.844551,338.991089 66.858063,340.189270 67.989197,341.669189 
	C66.579376,342.035431 65.051933,342.119904 63.524498,342.204407 
	C63.712536,340.854889 63.900570,339.505402 64.459824,337.974426 
z"/>
<path fill="#E1E4E9" opacity="1.000000" stroke="none" 
	d="
M71.898781,346.234955 
	C73.314850,347.047791 74.580925,348.202759 75.976906,349.654297 
	C71.247459,351.500122 70.886009,351.220306 71.898781,346.234955 
z"/>
<path fill="#E1E4E9" opacity="1.000000" stroke="none" 
	d="
M886.077881,181.386429 
	C886.155945,180.831314 886.356506,180.551956 886.778564,180.136307 
	C888.327209,181.084106 889.654419,182.168198 890.990845,183.626144 
	C890.219543,184.005112 889.439148,184.010223 888.268250,184.024933 
	C887.318665,183.243744 886.759521,182.452972 886.077881,181.386429 
z"/>
<path fill="#E1E4E9" opacity="1.000000" stroke="none" 
	d="
M95.898788,370.234955 
	C97.314857,371.047791 98.580933,372.202728 99.976913,373.654297 
	C95.247459,375.500122 94.886009,375.220276 95.898788,370.234955 
z"/>
<path fill="#E1E4E9" opacity="1.000000" stroke="none" 
	d="
M87.898781,362.234955 
	C89.314850,363.047791 90.580925,364.202759 91.976906,365.654297 
	C87.247459,367.500122 86.886009,367.220306 87.898781,362.234955 
z"/>
<path fill="#E1E4E9" opacity="1.000000" stroke="none" 
	d="
M79.898773,354.234955 
	C81.314842,355.047821 82.580917,356.202759 83.976898,357.654297 
	C79.247459,359.500122 78.886009,359.220306 79.898773,354.234955 
z"/>
<path fill="#E1E4E9" opacity="1.000000" stroke="none" 
	d="
M110.846634,385.141663 
	C112.289177,385.996857 113.467728,387.039520 115.651634,388.971619 
	C112.991119,388.971619 111.384727,388.971619 109.389206,388.902618 
	C109.527588,387.665436 110.055115,386.497284 110.846634,385.141663 
z"/>
<path fill="#E1E4E9" opacity="1.000000" stroke="none" 
	d="
M482.882568,16.802849 
	C481.631775,17.416899 480.218597,17.722868 478.423401,18.071987 
	C478.115662,16.985159 478.189941,15.855180 478.328064,13.753986 
	C480.172455,14.904937 481.446320,15.699852 482.882568,16.802849 
z"/>
<path fill="#E1E4E9" opacity="1.000000" stroke="none" 
	d="
M760.998474,59.630623 
	C759.683533,59.518463 756.757019,61.229187 757.872559,57.304810 
	C761.162720,54.886044 760.813293,57.426918 760.998474,59.630623 
z"/>
<path fill="#E1E4E9" opacity="1.000000" stroke="none" 
	d="
M103.899307,378.233795 
	C105.316490,379.049713 106.584290,380.206665 107.983032,381.660492 
	C106.178261,381.450470 102.146896,383.647308 103.899307,378.233795 
z"/>
<path fill="#E1E4E9" opacity="1.000000" stroke="none" 
	d="
M972.873291,342.145142 
	C974.060791,343.083954 975.011414,344.213593 975.897827,345.671570 
	C974.767883,344.778595 973.702209,343.557251 972.873291,342.145142 
z"/>
<path fill="#E1E4E9" opacity="1.000000" stroke="none" 
	d="
M948.797302,310.743988 
	C947.697144,310.558777 946.394226,310.117584 945.045654,309.338196 
	C946.198181,309.496002 947.396423,309.991974 948.797302,310.743988 
z"/>
<path fill="#E1E4E9" opacity="1.000000" stroke="none" 
	d="
M944.993408,308.646362 
	C944.473206,308.738617 943.946411,308.477234 943.141846,308.117218 
	C942.590698,307.234619 942.317261,306.450623 942.104797,305.334290 
	C943.106201,306.098846 944.046509,307.195770 944.993408,308.646362 
z"/>
<path fill="#E1E4E9" opacity="1.000000" stroke="none" 
	d="
M999.032104,386.193573 
	C999.207275,386.230865 999.372253,386.574493 999.289917,387.015350 
	C999.035767,386.908356 999.028870,386.704132 999.032104,386.193573 
z"/>
<path fill="#2FB1E5" opacity="1.000000" stroke="none" 
	d="
M489.445068,14.326771 
	C489.392822,14.420722 489.566589,14.482570 489.586609,14.450304 
	C489.606598,14.418037 489.497345,14.232821 489.445068,14.326771 
z"/>
<path fill="#E1E4E9" opacity="1.000000" stroke="none" 
	d="
M997.909302,420.502075 
	C1003.600830,419.891174 1000.783386,423.387177 999.866333,425.118500 
	C997.385193,429.802917 994.434875,434.238831 991.360107,438.940063 
	C989.732422,436.207367 989.144897,433.520050 992.074219,431.016998 
	C992.926697,430.288483 992.760376,428.484100 993.414795,427.383087 
	C994.756470,425.125824 996.337646,423.010925 997.909302,420.502075 
z"/>
<path fill="#E1E4E9" opacity="1.000000" stroke="none" 
	d="
M105.835419,428.820129 
	C102.587273,432.016479 99.129166,434.921936 95.356781,437.970428 
	C95.762360,434.247314 96.173615,430.275177 97.437744,426.596100 
	C97.723030,425.765839 101.029488,425.579559 102.847656,425.823578 
	C103.876114,425.961609 104.706085,427.578491 105.835419,428.820129 
z"/>
<path fill="#E1E4E9" opacity="1.000000" stroke="none" 
	d="
M83.787109,447.911285 
	C80.629181,450.974976 77.150528,453.901367 73.357330,456.970917 
	C72.777588,455.498566 72.482323,453.887238 72.253838,452.266510 
	C71.851311,449.411285 72.501770,447.910492 75.988617,448.383301 
	C78.409157,448.711517 80.968857,448.013489 83.787109,447.911285 
z"/>
<path fill="#E1E4E9" opacity="1.000000" stroke="none" 
	d="
M981.894348,453.803925 
	C980.606323,456.976990 979.164734,459.846069 977.417236,462.880005 
	C977.037048,460.919556 976.703003,458.761902 976.962463,456.678192 
	C977.213806,454.660767 978.075745,452.719452 978.839417,450.179443 
	C979.946289,451.446198 980.843567,452.473053 981.894348,453.803925 
z"/>
<path fill="#E1E4E9" opacity="1.000000" stroke="none" 
	d="
M734.299866,49.991928 
	C733.361572,48.395367 732.392700,47.006073 732.169983,45.506012 
	C731.927002,43.869541 732.375366,42.130444 732.522400,40.436089 
	C734.166504,41.287670 736.779724,41.785778 737.246826,43.066620 
	C738.137451,45.508659 737.803589,48.397255 737.989136,51.467361 
	C736.866089,51.272968 735.732056,50.711678 734.299866,49.991928 
z"/>
<path fill="#E1E4E9" opacity="1.000000" stroke="none" 
	d="
M950.220215,343.334778 
	C953.316162,343.352417 955.426453,344.280426 952.495483,347.903625 
	C951.535645,346.553467 950.905273,345.111816 950.220215,343.334778 
z"/>
<path fill="#E1E4E9" opacity="1.000000" stroke="none" 
	d="
M882.067993,176.369598 
	C882.659241,175.836273 883.368225,175.567810 884.077148,175.299347 
	C884.118042,176.037033 884.158936,176.774750 884.073364,177.806793 
	C883.359802,177.612228 882.772766,177.123352 882.067993,176.369598 
z"/>
<path fill="#E1E4E9" opacity="1.000000" stroke="none" 
	d="
M951.105103,352.339630 
	C951.573181,352.888031 951.980530,353.772614 952.141479,354.853821 
	C951.611450,354.258911 951.327881,353.467377 951.105103,352.339630 
z"/>
<path fill="#E1E4E9" opacity="1.000000" stroke="none" 
	d="
M772.034546,71.334610 
	C772.875183,71.497543 773.863525,71.953072 774.905884,72.762527 
	C774.034058,72.620041 773.108154,72.123619 772.034546,71.334610 
z"/>
<path fill="#E1E4E9" opacity="1.000000" stroke="none" 
	d="
M896.937988,198.336395 
	C897.369751,198.589127 897.854736,199.137680 898.117432,199.868011 
	C897.593872,199.577255 897.292603,199.104736 896.937988,198.336395 
z"/>
<path fill="#EF3F32" opacity="1.000000" stroke="none" 
	d="
M420.166107,372.999420 
	C436.712891,301.631775 501.442078,255.899170 573.023621,262.144226 
	C609.581177,265.333618 640.630005,281.098083 665.411255,308.108124 
	C684.697815,329.129333 696.787598,353.978760 701.059326,382.970947 
	C609.123596,382.970947 517.525757,382.970947 425.416077,382.571808 
	C424.769318,381.220367 424.256165,380.121155 424.559845,379.339233 
	C426.806122,373.555542 426.601501,373.202606 420.166107,372.999420 
z"/>
<path fill="#EF3F32" opacity="1.000000" stroke="none" 
	d="
M420.096191,373.398438 
	C426.601501,373.202606 426.806122,373.555542 424.559845,379.339233 
	C424.256165,380.121155 424.769318,381.220367 424.951904,382.503052 
	C422.930084,382.833466 420.860626,382.833466 418.246857,382.833466 
	C418.933258,379.347839 419.479797,376.572662 420.096191,373.398438 
z"/>
</svg>